<?xml version="1.0" encoding="UTF-8"?>
<svg width="80px" height="80px" viewBox="0 0 80 80" version="1.1" xmlns="http://www.w3.org/2000/svg" xmlns:xlink="http://www.w3.org/1999/xlink">
    <!-- Generator: Sketch 44.1 (41455) - http://www.bohemiancoding.com/sketch -->
    <title>农业银行</title>
    <desc>Created with Sketch.</desc>
    <defs></defs>
    <g id="Page-1" stroke="none" stroke-width="1" fill="none" fill-rule="evenodd">
        <g id="app" transform="translate(-4.000000, -150.000000)">
            <g id="农业银行" transform="translate(4.000000, 150.000000)">
                <rect id="Rectangle-Copy" x="0" y="0" width="80" height="80"></rect>
                <path d="M53.3889785,39.8321502 L53.3889785,51.7658937 L53.2195137,52.0990693 L53.0525783,52.2681811 L52.8831136,52.6064048 L52.5492428,52.6064048 L52.2128426,52.7729926 L51.5349837,52.9395804 L44.4604635,52.9395804 L44.4604635,71.7640006 L45.9780581,71.428301 L47.4956527,71.2591891 L48.8437826,70.7543777 L50.1919125,70.418678 L50.8647128,70.2520902 L51.5349837,69.9138665 L52.8831136,69.4115791 L54.2337728,68.7401798 L55.412438,68.0662565 L56.7580385,67.3923332 L57.939233,66.7209339 L58.9459041,65.8804228 L60.1270985,65.0424357 L62.3149641,63.1923016 L63.3266939,62.1826787 L64.1664295,61.1755797 L65.1806886,59.999369 L66.0204243,58.9922701 L66.8652186,57.8135353 L67.5354896,56.6373245 L68.2082899,55.2920019 L68.8861488,54.1183152 L69.5564197,52.7729926 L70.0597553,51.42767 L70.9045496,48.7395488 L71.4104145,47.3942262 L71.5773499,45.8823158 L71.91375,44.5369932 L72.0857441,43.0250828 L72.2552088,39.998738 L72.0857441,37.6463165 L71.91375,36.4701057 L71.91375,35.2938949 L71.4104145,32.9414734 L70.7376142,30.5890519 L70.4012141,29.5794289 L70.0597553,28.57233 L69.2200196,26.3864963 L68.0413545,24.3697744 L67.032154,22.3530525 L65.6840242,20.6720303 L64.1664295,18.8244203 L62.6513643,17.143398 L60.9668342,15.6314876 L59.2873629,14.286165 L57.4283095,12.9408424 L55.412438,11.7646316 L53.3889785,10.7550087 L53.3889785,38.3177157 L53.2195137,38.6559394 L53.0525783,38.8250513 L52.8831136,39.1582268 L52.5492428,39.3273387 L52.2128426,39.3273387 L51.5349837,39.4964505 L41.602327,39.4964505 L41.4328622,39.6630383 L41.2659268,39.8321502 L41.2659268,28.2366304 L41.4328622,27.8984067 L41.602327,27.5627071 L41.9361978,27.3961193 L46.4864523,27.3961193 L47.1592526,27.2270074 L47.6625881,27.0578956 L47.9989883,26.8913078 L48.3404471,26.3864963 L48.3404471,0.840511122 L51.7044484,1.85013409 L53.3889785,2.35242152 L54.9040438,2.857233 L56.5885738,3.52863228 L58.1061684,4.3691434 L59.623763,5.04306673 L60.9668342,5.88357785 L62.4818995,6.89067676 L63.8325587,7.73118788 L65.1806886,8.74081085 L66.3568244,9.91449755 L67.7049543,11.0932324 L68.8861488,12.2694431 L71.0740144,14.6218646 L72.0857441,15.9671873 L73.0949445,17.3099858 L73.9346802,18.8244203 L74.7794745,20.1672188 L76.4640046,23.1935637 L77.1342755,24.705474 L77.645199,26.3864963 L78.6518701,29.5794289 L79.1552057,31.2604512 L79.4966645,32.9414734 L79.6635999,34.6224957 L80,36.4701057 L80,42.0154599 L79.8330646,44.0347058 L79.6635999,46.0489036 L79.3246704,48.0656255 L78.8188055,49.9157596 L78.31547,51.9324815 L77.645199,53.7800915 L76.9673401,55.4611137 L76.1276044,57.3112478 L75.2828101,58.9922701 L74.2736097,60.6707683 L73.2618799,62.3517905 L72.0857441,63.8637009 L70.9045496,65.3781354 L69.7258845,66.8900457 L68.3802839,68.2353684 L67.032154,69.5781669 L65.5170887,70.7543777 L63.9994941,71.9331125 L62.4818995,73.1093232 L60.7973695,74.1189462 L59.1128395,75.1260451 L57.4283095,75.9640322 L55.5819027,76.8045433 L53.8973727,77.4784666 L51.8713839,78.1498659 L50.0249771,78.6546774 L48.1709823,79.1594889 L46.1449935,79.4951885 L44.1265927,79.6617763 L42.1056625,79.8308882 L40.0847324,80 L38.0638022,79.8308882 L36.042872,79.6617763 L34.0219419,79.4951885 L32.0035411,79.1594889 L29.9826109,78.6546774 L28.1286161,78.1498659 L26.2771507,77.4784666 L24.4256853,76.8045433 L21.0540959,75.1260451 L19.3695659,74.1189462 L17.6850359,73.1093232 L16.1699706,71.9331125 L14.652376,70.7543777 L13.1373107,69.5781669 L11.7917101,68.2353684 L10.4435803,66.8900457 L9.09545038,65.3781354 L7.91931455,63.8637009 L6.90758481,62.3517905 L5.89838439,60.6707683 L4.88665465,58.9922701 L4.04691897,57.3112478 L3.20212463,55.4611137 L2.52932435,53.7800915 L1.85399475,51.9324815 L1.34812988,49.9157596 L0.844794334,48.0656255 L0.508394195,46.0489036 L0.169464732,44.0347058 L0,42.0154599 L0,38.1511279 L0.169464732,36.4701057 L0.336400139,34.6224957 L0.677858927,32.9414734 L1.01425907,31.2604512 L1.34812988,29.5794289 L2.36238895,26.3864963 L3.0326599,24.705474 L3.70546018,23.1935637 L4.38331911,21.6816533 L5.22305479,20.1672188 L6.06784913,18.8244203 L7.07452022,17.3099858 L8.08877928,15.9671873 L9.09545038,14.6218646 L10.1071801,13.4456539 L11.2833159,12.2694431 L13.6457049,9.91449755 L16.336906,7.90029973 L17.6850359,6.89067676 L19.0356951,5.88357785 L20.5507604,5.04306673 L22.0632963,4.3691434 L23.580891,3.52863228 L25.0959562,2.857233 L26.6135509,2.35242152 L31.6671409,0.840511122 L31.6671409,26.3864963 L31.8340763,26.72472 L32.0035411,26.8913078 L32.5068766,27.0578956 L33.0102121,27.2270074 L33.5186063,27.3961193 L38.0638022,27.3961193 L38.4002023,27.5627071 L38.7366025,27.8984067 L38.7366025,39.8321502 L38.4002023,39.4964505 L28.4650163,39.4964505 L27.7896867,39.3273387 L27.4532865,39.3273387 L27.2838218,39.1582268 L26.949951,38.8250513 L26.7804863,38.6559394 L26.7804863,38.3177157 L26.6135509,37.8154283 L26.6135509,10.7550087 L24.5926207,11.7646316 L22.7386259,12.9408424 L19.0356951,15.6314876 L17.3511651,17.143398 L15.8335705,18.8244203 L13.1373107,22.5221644 L11.9611749,24.3697744 L10.9469158,26.3864963 L10.4435803,27.3961193 L10.1071801,28.57233 L9.26238579,30.7556397 L8.75905024,32.9414734 L8.25571469,35.2938949 L8.08877928,36.4701057 L8.08877928,37.6463165 L7.91931455,39.998738 L7.91931455,41.5106484 L8.08877928,43.0250828 L8.25571469,44.3678814 L8.4226501,45.8823158 L8.75905024,47.3942262 L9.09545038,48.7395488 L9.59878592,50.0823474 L9.7733093,50.7562707 L10.1071801,51.42767 L10.613045,52.7729926 L11.1163805,54.1183152 L12.4645104,56.6373245 L14.1490404,58.8231582 L14.9887761,59.999369 L15.8335705,61.1755797 L16.8402416,62.1826787 L17.8545006,63.1923016 L19.8754308,65.0424357 L21.0540959,65.8804228 L22.2302317,66.7209339 L24.5926207,68.0662565 L25.9356919,68.7401798 L27.1168864,69.4115791 L29.8131462,70.418678 L31.3256821,70.7543777 L32.673812,71.2591891 L34.0219419,71.428301 L35.5395365,71.7640006 L35.5395365,52.9395804 L28.4650163,52.9395804 L27.7896867,52.7729926 L27.6202219,52.6064048 L27.2838218,52.6064048 L26.949951,52.2681811 L26.7804863,52.0990693 L26.7804863,51.7658937 L26.6135509,51.2585581 L26.6135509,39.8321502 L26.7804863,39.998738 L26.949951,40.1678498 L27.4532865,40.5035495 L27.9566221,40.6726613 L28.4650163,40.8392491 L38.0638022,40.8392491 L38.4002023,41.0083609 L38.7366025,41.3440606 L38.7366025,52.7729926 L41.2659268,52.7729926 L41.2659268,41.6797602 L41.4328622,41.3440606 L41.602327,41.0083609 L41.9361978,40.8392491 L51.5349837,40.8392491 L52.0433779,40.6726613 L52.5492428,40.5035495 L53.0525783,40.1678498 L53.3889785,39.8321502 L53.3889785,39.8321502 Z M36.3792722,0.169111847 L38.2307376,0 L41.9361978,0 L43.6207278,0.169111847 L43.6207278,24.705474 L43.4537924,24.8745859 L43.286857,25.2102855 L43.1173923,25.2102855 L42.9504569,25.3768733 L42.4420627,25.5459852 L37.7274021,25.5459852 L37.2240665,25.3768733 L37.0520725,25.2102855 L36.7156723,25.2102855 L36.7156723,24.8745859 L36.5462076,24.705474 L36.3792722,24.0340748 L36.3792722,0.169111847 L36.3792722,0.169111847 Z" id="Fill-42-Copy" fill="#238C71"></path>
            </g>
        </g>
    </g>
</svg>