<?xml version="1.0" encoding="UTF-8"?>
<svg width="80px" height="80px" viewBox="0 0 80 80" version="1.1" xmlns="http://www.w3.org/2000/svg" xmlns:xlink="http://www.w3.org/1999/xlink">
    <!-- Generator: Sketch 44.1 (41455) - http://www.bohemiancoding.com/sketch -->
    <title>工商银行</title>
    <desc>Created with Sketch.</desc>
    <defs></defs>
    <g id="Page-1" stroke="none" stroke-width="1" fill="none" fill-rule="evenodd">
        <g id="app" transform="translate(-4.000000, -30.000000)">
            <g id="工商银行" transform="translate(4.000000, 30.000000)">
                <rect id="Rectangle" x="0" y="0" width="80" height="80"></rect>
                <path d="M17.4732006,42.8662583 L17.4732006,60.6151097 L37.1337417,60.6151097 L37.1337417,54.8800408 L23.7544666,54.8800408 L23.7544666,48.3282287 L37.1337417,48.3282287 L37.1337417,30.5793772 L23.7544666,30.5793772 L23.7544666,24.5737621 L37.1337417,24.5737621 L37.1337417,18.8386932 L17.4732006,18.8386932 L17.4732006,36.5875447 L30.8524758,36.5875447 L30.8524758,42.5931598 L17.4732006,42.5931598 L17.4732006,42.8662583 L17.4732006,42.8662583 Z M62.5267994,42.8662583 L62.5267994,60.6151097 L42.8662583,60.6151097 L42.8662583,54.8800408 L56.2455334,54.8800408 L56.2455334,48.3282287 L42.8662583,48.3282287 L42.8662583,30.5793772 L56.2455334,30.5793772 L56.2455334,24.5737621 L42.8662583,24.5737621 L42.8662583,18.8386932 L62.5267994,18.8386932 L62.5267994,36.5875447 L49.1475242,36.5875447 L49.1475242,42.5931598 L62.5267994,42.5931598 L62.5267994,42.8662583 L62.5267994,42.8662583 Z M0,40.1352731 L0.27309852,36.0387953 L0.546197039,33.8565595 L0.816743236,31.9448698 L1.91168964,28.1214906 L2.45533435,26.2098009 L3.27462991,24.5737621 L4.09392547,22.6620725 L4.91322103,21.020929 L6.82491067,17.7462991 L7.91730475,16.107708 L9.28279735,14.4691169 L11.740684,11.740684 L13.1036243,10.3751914 L14.4716692,9.28279735 L16.1102603,7.91730475 L19.3848903,5.73251659 L21.0234814,4.91322103 L24.5737621,3.27462991 L28.1214906,1.90913731 L30.0331802,1.36294028 L31.9448698,0.816743236 L33.8565595,0.546197039 L36.0413476,0.270546197 L40.1352731,0 L44.2317509,0.270546197 L46.1434405,0.546197039 L48.0551302,0.816743236 L51.8759571,1.90913731 L53.7876468,2.45788668 L55.6993364,3.27462991 L57.3379275,4.09392547 L58.9765186,4.91322103 L62.5267994,6.82491067 L63.8897397,7.91730475 L65.5283308,9.28279735 L68.259316,11.740684 L69.6248086,13.1036243 L70.9903012,14.4691169 L72.0826953,16.107708 L73.1750893,17.7462991 L74.2674834,19.3848903 L75.086779,21.020929 L76.9984686,24.5737621 L78.3614089,28.1214906 L78.6345074,30.0331802 L79.1832568,31.9448698 L79.4563553,33.8565595 L79.7269015,36.0387953 L80,40.1352731 L79.7269015,44.2317509 L79.1832568,48.0551302 L78.3614089,51.8759571 L77.5446656,53.7876468 L76.9984686,55.6993364 L76.1766207,57.3379275 L75.086779,58.9765186 L73.1750893,62.5267994 L72.0826953,63.8897397 L70.9903012,65.5283308 L66.8963757,69.6248086 L65.5283308,70.9903012 L63.8897397,72.0826953 L62.5267994,73.1750893 L60.8882083,74.2674834 L58.9765186,75.086779 L55.6993364,76.9984686 L51.8759571,78.3614089 L49.9668198,78.9076059 L48.0551302,79.1807044 L46.1434405,79.4563553 L44.2317509,79.7269015 L40.1352731,80 L36.0413476,79.7269015 L33.8565595,79.4563553 L31.9448698,79.1807044 L28.1214906,78.3614089 L26.2123532,77.5421133 L24.5737621,76.9984686 L22.6620725,76.179173 L21.0234814,75.086779 L17.7462991,73.1750893 L16.1102603,72.0826953 L14.4716692,70.9903012 L11.740684,68.259316 L10.3751914,66.8963757 L9.28279735,65.5283308 L7.91730475,63.8897397 L6.82491067,62.5267994 L5.73251659,60.8882083 L4.91322103,58.9765186 L3.27462991,55.6993364 L1.91168964,51.8759571 L1.36294028,49.9668198 L0.816743236,48.0551302 L0.27309852,44.2317509 L0,40.1352731 L0,40.1352731 Z M7.91730475,40.1352731 L8.19040327,43.4124553 L8.46350179,46.4165391 L9.28279735,49.6937213 L10.3751914,52.4221542 L11.740684,55.4262379 L13.3792751,57.8841246 L14.1960184,59.2496172 L15.2884125,60.3420112 L17.2001021,62.7998979 L19.6579888,64.7090352 L22.1158754,66.6207249 L24.8468606,68.259316 L27.5752935,69.6248086 L30.5793772,70.7172027 L33.5834609,71.5364982 L35.2220521,71.8095967 L36.8580909,72.0826953 L43.4124553,72.0826953 L46.4165391,71.5364982 L49.691169,70.7172027 L52.4247065,69.6248086 L55.4262379,68.259316 L57.8841246,66.6207249 L59.2496172,65.8014293 L60.3420112,64.7090352 L62.7998979,62.7998979 L66.6207249,57.8841246 L68.259316,55.4262379 L69.6248086,52.4221542 L70.7172027,49.6937213 L71.5364982,46.4165391 L71.8095967,45.0510465 L72.0826953,43.4124553 L72.0826953,36.8606432 L71.5364982,33.5834609 L70.7172027,30.5793772 L69.6248086,27.5752935 L68.259316,24.8468606 L65.8014293,20.7503828 L64.7115875,19.6579888 L62.7998979,17.4732006 L60.3420112,15.2884125 L57.8841246,13.3767228 L55.4262379,11.740684 L52.4247065,10.3751914 L49.691169,9.28279735 L46.4165391,8.46350179 L45.0510465,8.19040327 L43.4124553,8.19040327 L41.7738642,7.91730475 L40.1352731,7.91730475 L36.8580909,8.19040327 L33.5834609,8.46350179 L30.5793772,9.28279735 L27.5752935,10.3751914 L24.8468606,11.740684 L22.1158754,13.3767228 L20.7503828,14.1985707 L19.6579888,15.2884125 L17.2001021,17.4732006 L15.2884125,19.6579888 L13.3792751,22.1158754 L11.740684,24.8468606 L10.3751914,27.5752935 L9.28279735,30.5793772 L8.46350179,33.5834609 L8.19040327,35.2220521 L8.19040327,36.8606432 L7.91730475,38.4992343 L7.91730475,40.1352731 L7.91730475,40.1352731 Z" fill="#D9222A"></path>
            </g>
        </g>
    </g>
</svg>