<?xml version="1.0" encoding="UTF-8"?>
<svg width="74px" height="80px" viewBox="0 0 74 80" version="1.1" xmlns="http://www.w3.org/2000/svg" xmlns:xlink="http://www.w3.org/1999/xlink">
    <!-- Generator: Sketch 44.1 (41455) - http://www.bohemiancoding.com/sketch -->
    <title>交通银行</title>
    <desc>Created with Sketch.</desc>
    <defs></defs>
    <g id="Page-1" stroke="none" stroke-width="1" fill="none" fill-rule="evenodd">
        <g id="app" transform="translate(-7.000000, -750.000000)">
            <g id="交通银行" transform="translate(4.000000, 750.000000)">
                <rect id="Rectangle-Copy-6" x="0" y="0" width="80" height="80"></rect>
                <path d="M63.3107053,60 C58.6116532,60.1516588 54.2727906,60.3033175 49.5761082,60.4549763 C46.6021745,73.1018957 22.0097575,69.6872038 24.749094,53.6350711 C26.1258712,44.1279621 38.9742124,39.9739336 46.9457764,47.1540284 C48.6993309,49.1327014 49.5571508,50.971564 50.1211319,55 C54.0595205,54.8483412 59.3723167,54.6966825 63.3107053,54.5450237 C63.5097575,34.0900474 40.27753,23.7085308 22.8533594,33.6350711 C6.15430722,43.1516588 8.0808475,72.1398104 25.5832172,79.5450237 L25.5832172,80 C16.0405631,79.8127962 5.57136883,72.4218009 3.29411765,63.6374408 L3.42207973,16.478673 C10.9979091,11.3270142 19.369947,5.15165877 26.9457764,0 C27.249094,0.151658768 27.5524115,0.303317536 27.855729,0.454976303 C27.3320323,7.56398104 27.6614162,19.2867299 28.0832172,27.8412322 C32.8296627,23.2345972 36.0263451,18.4194313 44.2182883,16.8175355 C49.5002788,15.7867299 54.5524115,16.4075829 57.7419849,17.5 C81.6780039,25.6990521 83.1685252,56.6279621 62.855729,67.2725118 C62.4007527,67.2725118 61.4149707,68.1682464 60.6590466,68.3175355 C60.6590466,68.1658768 61.1329802,67.5094787 61.4931698,66.8175355 C62.0974352,64.5450237 62.7040703,62.2725118 63.3107053,60" id="Fill-62-Copy" fill="#292D78"></path>
            </g>
        </g>
    </g>
</svg>