<?xml version="1.0" encoding="UTF-8"?>
<svg width="80px" height="80px" viewBox="0 0 80 80" version="1.1" xmlns="http://www.w3.org/2000/svg" xmlns:xlink="http://www.w3.org/1999/xlink">
    <!-- Generator: Sketch 44.1 (41455) - http://www.bohemiancoding.com/sketch -->
    <title>中国银行</title>
    <desc>Created with Sketch.</desc>
    <defs></defs>
    <g id="Page-1" stroke="none" stroke-width="1" fill="none" fill-rule="evenodd">
        <g id="app" transform="translate(-4.000000, -270.000000)">
            <g id="中国银行" transform="translate(4.000000, 270.000000)">
                <rect id="Rectangle-Copy-2" x="0" y="0" width="80" height="80"></rect>
                <path d="M30.5268056,31.9119767 L48.7507454,31.9119767 C48.7507454,31.9119767 50.2990897,31.6163617 50.4468972,33.3125135 L50.4468972,45.92946 C50.4468972,45.92946 50.8176275,47.9236499 49.3395524,47.6280349 L30.8951129,47.6280349 C30.8951129,47.6280349 29.4218839,47.9963421 29.1989611,46.3001903 L29.1989611,33.3125135 C29.1989611,33.3125135 29.4194608,31.9119767 30.5268056,31.9119767 L30.5268056,31.9119767 Z M35.9132992,8.89035042 L35.9132992,23.574179 L29.7150758,23.574179 C29.7150758,23.574179 21.3045859,24.0902938 21.0089709,33.3876288 L21.0089709,46.9641126 C21.0089709,46.9641126 21.2294706,55.3019103 29.9379986,56.2590246 L35.9132992,56.2590246 L35.9132992,70.7199303 C35.9132992,70.7199303 21.3045859,69.9082005 13.2624032,55.8907173 C13.2624032,55.8907173 6.32514226,46.0045753 9.20375421,33.6832439 C12.0823661,21.3594894 18.7942812,16.4164183 20.1245488,15.1636891 C21.4523934,13.9085367 30.047037,8.79827361 35.9132992,8.89035042 L35.9132992,8.89035042 Z M44.0281741,8.8927735 C44.0281741,8.8927735 53.2528169,9.629388 60.7037695,16.4915336 C68.1571453,23.3536793 70.0737968,30.2158249 70.8855266,33.9037436 C71.6972564,37.5940853 72.2884865,48.1441496 66.3858781,57.1434466 C60.4832698,66.1475897 49.2668601,70.2789309 44.0281741,70.7199303 L44.0281741,56.2590246 L50.965435,56.2590246 C50.965435,56.2590246 58.3436954,54.7833725 58.7846949,47.109497 L58.7846949,31.691477 C58.7846949,31.691477 57.6046579,23.9424863 49.4146677,23.574179 L44.0281741,23.574179 L44.0281741,8.8927735 L44.0281741,8.8927735 Z M39.6763332,0.036437932 C39.6763332,0.036437932 57.0885431,-1.43679108 70.6650269,14.3519593 C70.6650269,14.3519593 79.4438241,23.9424863 79.9599388,38.0350848 C79.9599388,38.0350848 80.6989764,48.6602644 75.8285976,57.7346766 C70.9582188,66.8115119 65.6468406,71.6067754 56.9407356,75.9586164 C48.2346306,80.3128804 34.2171474,80.9041105 24.9925046,76.6225387 C15.7702848,72.3433899 10.0881762,67.8437415 4.70410574,58.1029839 C4.70410574,58.1029839 -2.52634715,45.7089602 0.941071777,31.3207467 C0.941071777,31.3207467 1.8254938,22.7624492 9.64717675,13.4675373 C9.64717675,13.4675373 21.0816631,-0.552369056 39.6763332,0.036437932 L39.6763332,0.036437932 Z" id="Fill-97-Copy" fill="#A42A2F"></path>
            </g>
        </g>
    </g>
</svg>