<?xml version="1.0" encoding="UTF-8"?>
<svg width="78px" height="80px" viewBox="0 0 78 80" version="1.1" xmlns="http://www.w3.org/2000/svg" xmlns:xlink="http://www.w3.org/1999/xlink">
    <!-- Generator: Sketch 44.1 (41455) - http://www.bohemiancoding.com/sketch -->
    <title>建设银行</title>
    <desc>Created with Sketch.</desc>
    <defs></defs>
    <g id="Page-1" stroke="none" stroke-width="1" fill="none" fill-rule="evenodd">
        <g id="app" transform="translate(-5.000000, -390.000000)">
            <g id="建设银行" transform="translate(4.000000, 390.000000)">
                <rect id="Rectangle-Copy-3" x="0" y="0" width="80" height="80"></rect>
                <path d="M68.1526319,31.7793272 L59.3328222,40.3593796 C59.3328222,40.3593796 57.9012617,42.3868417 56.7094584,40.4780943 L40.5013996,24.6285076 C40.5013996,24.6285076 39.069839,22.7220879 37.9967505,24.391078 L21.6699769,41.073996 C21.6699769,41.073996 20.5968884,42.7429861 21.9074065,43.4576025 L37.8780357,59.4282318 C37.8780357,59.4282318 39.1885538,61.5744087 40.3826848,59.9054186 L56.946888,43.2201729 C56.946888,43.2201729 57.4240748,41.7886124 60.0474386,42.1470844 L76.9677861,42.1470844 C76.9677861,42.1470844 77.687058,59.309517 64.5748944,70.0334186 C64.5748944,70.0334186 47.5358321,87.0771364 24.174626,76.5883366 C24.174626,76.5883366 1.64907874,68.7229006 1.88418056,39.5260484 C1.88418056,39.5260484 2.48473767,19.9800093 20.2430718,9.61225201 C20.2430718,9.61225201 33.2318652,-0.0408888753 43.5972948,7.1099307 L68.1526319,31.7793272 L68.1526319,31.7793272 Z M37.1657471,2.8199045 C37.1657471,2.8199045 43.9580946,-2.4244954 55.6363699,1.39067168 C55.6363699,1.39067168 59.5702518,2.8199045 64.0977075,6.87250115 L78.1595894,21.6489994 L70.6526255,29.1582911 L49.197839,7.349688 C49.197839,7.349688 45.624757,2.93861928 37.1657471,2.8199045 L37.1657471,2.8199045 Z" id="Fill-89-Copy" fill="#193E7E"></path>
            </g>
        </g>
    </g>
</svg>