<?xml version="1.0" encoding="UTF-8"?>
<svg width="80px" height="76px" viewBox="0 0 80 76" version="1.1" xmlns="http://www.w3.org/2000/svg" xmlns:xlink="http://www.w3.org/1999/xlink">
    <!-- Generator: Sketch 44.1 (41455) - http://www.bohemiancoding.com/sketch -->
    <title>邮政银行</title>
    <desc>Created with Sketch.</desc>
    <defs></defs>
    <g id="Page-1" stroke="none" stroke-width="1" fill="none" fill-rule="evenodd">
        <g id="app" transform="translate(-4.000000, -1352.000000)">
            <g id="邮政银行" transform="translate(4.000000, 1350.000000)">
                <rect id="Rectangle-Copy-11" x="0" y="0" width="80" height="80"></rect>
                <path d="M44.1849697,35.3321039 L42.3828296,44.2201585 L41.8672173,46.4127622 L40.0625743,55.3008168 L21.7708529,55.3008168 L21.3853952,57.360763 L42.7682873,57.360763 L45.601652,44.2201585 L47.406295,35.3321039 L73.0417371,35.3321039 L71.1094425,44.2201585 L50.6276203,44.2201585 L45.9896127,66.2488175 L19.4505976,66.2488175 L19.0651399,68.3112667 L48.8229773,68.3112667 L51.6563419,55.3008168 L53.4609849,46.4127622 L70.7239847,46.4127622 L68.9193417,55.3008168 L56.6823102,55.3008168 L53.9765972,68.3112667 L52.0443026,77.1993213 L12.1093799,77.1993213 L16.7473875,55.3008168 L0,55.3008168 L1.9322946,46.4127622 L2.31775233,44.2201585 L4.25004693,35.3321039 L20.8672799,35.3321039 L25.5077905,13.4310965 L43.7995119,13.4310965 L46.1172643,2.35294118 L80,2.35294118 L78.0677054,11.2409957 L49.210938,11.2409957 L48.8229773,13.4310965 L47.0208372,22.321654 L28.7266129,22.321654 L28.2110006,24.3816002 L49.7240473,24.3816002 L50.112008,22.321654 L52.0443026,13.4310965 L77.6797447,13.4310965 L75.7474501,22.321654 L55.263125,22.321654 L52.9453726,33.2721577 L26.4088605,33.2721577 L25.8932482,35.3321039 L44.1849697,35.3321039 L44.1849697,35.3321039 Z M36.843752,46.4127622 L37.2292097,44.2201585 L24.0886052,44.2201585 L23.5729929,46.4127622 L36.843752,46.4127622 L36.843752,46.4127622 Z M7.3412177,44.2201585 L6.95575996,46.4127622 L18.5495276,46.4127622 L19.0651399,44.2201585 L7.3412177,44.2201585 L7.3412177,44.2201585 Z" id="Fill-52-Copy" fill="#1D7842"></path>
            </g>
        </g>
    </g>
</svg>