<?xml version="1.0" encoding="UTF-8"?>
<svg width="78px" height="79px" viewBox="0 0 78 79" version="1.1" xmlns="http://www.w3.org/2000/svg" xmlns:xlink="http://www.w3.org/1999/xlink">
    <!-- Generator: Sketch 44.1 (41455) - http://www.bohemiancoding.com/sketch -->
    <title>中信</title>
    <desc>Created with Sketch.</desc>
    <defs>
        <polygon id="path-1" points="36.116 78.7096774 0.643741935 78.7096774 0.643741935 0.658451613 36.116 0.658451613"></polygon>
        <polygon id="path-3" points="1.94820638e-15 62.8985806 1.94820638e-15 0.950193548 15.2668387 0.950193548 15.2668387 62.8985806"></polygon>
    </defs>
    <g id="Page-1" stroke="none" stroke-width="1" fill="none" fill-rule="evenodd">
        <g id="app" transform="translate(-4.000000, -1471.000000)">
            <g id="中信" transform="translate(4.000000, 1470.000000)">
                <rect id="Rectangle-Copy-12" x="0" y="0" width="80" height="80"></rect>
                <g id="Group-6-Copy">
                    <g id="Group-3" transform="translate(20.645161, 0.641419)">
                        <mask id="mask-2" fill="white">
                            <use xlink:href="#path-1"></use>
                        </mask>
                        <g id="Clip-2"></g>
                        <path d="M1.69664516,7.60812903 C8.03083871,9.99909677 13.8179355,16.0842581 13.8179355,23.2584516 L13.8424516,78.448129 C15.3301935,78.6171613 16.8450323,78.7100645 18.3792258,78.7100645 C19.9263226,78.7100645 21.4501935,78.6171613 22.9456774,78.4416774 L22.9456774,23.2584516 C22.9456774,16.0842581 28.7301935,9.99909677 35.0579355,7.60812903 C35.6772903,7.34619355 36.116,6.72941935 36.116,6.01458065 C36.116,5.22232258 35.5701935,4.50877419 34.876,4.30490323 C29.8682581,1.96296774 24.2811613,0.658451613 18.3805161,0.658451613 C12.4811613,0.658451613 6.89277419,1.96296774 1.88245161,4.30490323 C1.18051613,4.50877419 0.643741935,5.22232258 0.643741935,6.01458065 C0.643741935,6.72941935 1.08374194,7.34619355 1.69664516,7.60812903" id="Fill-1" fill="#D70010" mask="url(#mask-2)"></path>
                    </g>
                    <g id="Group-5" transform="translate(0.000000, 7.741935)">
                        <path d="M28.727871,70.2322581 L28.7704516,19.6490323 C28.7704516,14.163871 25.6685161,9.47225806 21.2891613,7.63225806 L21.2891613,67.3741935 C23.6388387,68.5677419 26.1304516,69.5290323 28.727871,70.2322581" id="Fill-4" fill="#D70010"></path>
                        <path d="M56.7615484,67.3744516 L56.7615484,7.63251613 C52.3834839,9.47251613 49.2802581,14.164129 49.2802581,19.6492903 L49.3228387,70.2325161 C51.9176774,69.5292903 54.4092903,68.568 56.7615484,67.3744516" id="Fill-6" fill="#D70010"></path>
                        <g id="Group-10" transform="translate(0.000000, 0.641419)">
                            <mask id="mask-4" fill="white">
                                <use xlink:href="#path-3"></use>
                            </mask>
                            <g id="Clip-9"></g>
                            <path d="M8.04490323,24.9424516 C8.34683871,24.9424516 8.63587097,25.1901935 8.73135484,25.5050323 C9.37006452,27.8134194 11.2216774,29.5114839 13.435871,29.6172903 C14.1403871,29.5656774 14.7700645,29.2405161 15.2668387,28.7437419 L15.2668387,0.950193548 C5.9803871,8.08696774 -0.000258064516,19.3050323 -0.000258064516,31.9256774 C-0.000258064516,44.5411613 5.9803871,55.7605161 15.2668387,62.8985806 L15.2668387,35.0547097 C14.7700645,34.5566452 14.1403871,34.2314839 13.435871,34.1824516 C11.2216774,34.2908387 9.37006452,35.9850323 8.73135484,38.296 C8.63587097,38.6108387 8.34683871,38.8572903 8.04490323,38.8572903 C7.77909677,38.8572903 7.50554839,38.6030968 7.43587097,38.4624516 C6.05393548,36.7218065 5.17264516,34.3953548 5.17264516,31.8701935 C5.17264516,29.339871 6.05393548,27.0727742 7.43587097,25.3372903 C7.50554839,25.2005161 7.77909677,24.9424516 8.04490323,24.9424516" id="Fill-8" fill="#D70010" mask="url(#mask-4)"></path>
                        </g>
                        <path d="M75.2424516,34.8233548 C73.036,34.9317419 71.1869677,36.6259355 70.5495484,38.9369032 C70.4514839,39.2517419 70.1650323,39.4981935 69.8618065,39.4981935 C69.6011613,39.4981935 69.3276129,39.244 69.2553548,39.1033548 C67.8824516,37.3627097 66.9985806,35.0362581 66.9985806,32.5110968 C66.9985806,29.9807742 67.8824516,27.7149677 69.2553548,25.9781935 C69.3276129,25.8414194 69.6011613,25.5833548 69.8618065,25.5833548 C70.1650323,25.5833548 70.4514839,25.8323871 70.5495484,26.1459355 C71.1869677,28.4543226 73.036,30.1523871 75.2424516,30.2581935 C76.3327742,30.1807742 77.3147097,29.3885161 77.8243871,28.3549677 C76.6682581,17.560129 71.1134194,8.08270968 62.9908387,1.74851613 L62.9908387,63.3807742 C70.7430968,57.3369032 76.1547097,48.4323871 77.6385806,38.2517419 C77.6966452,37.7317419 77.7469677,37.2298065 77.792129,36.7575484 C77.2953548,35.680129 76.3637419,34.9007742 75.2424516,34.8233548" id="Fill-11" fill="#D70010"></path>
                    </g>
                </g>
            </g>
        </g>
    </g>
</svg>