<?xml version="1.0" encoding="UTF-8"?>
<svg width="80px" height="36px" viewBox="0 0 80 36" version="1.1" xmlns="http://www.w3.org/2000/svg" xmlns:xlink="http://www.w3.org/1999/xlink">
    <!-- Generator: Sketch 44.1 (41455) - http://www.bohemiancoding.com/sketch -->
    <title>光大银行</title>
    <desc>Created with Sketch.</desc>
    <defs></defs>
    <g id="Page-1" stroke="none" stroke-width="1" fill="none" fill-rule="evenodd">
        <g id="app" transform="translate(-4.000000, -652.000000)">
            <g id="光大银行" transform="translate(4.000000, 630.000000)">
                <rect id="Rectangle-Copy-5" x="0" y="0" width="80" height="80"></rect>
                <g id="Group" transform="translate(0.000000, 22.588235)">
                    <path d="M0,0 L17.8647273,0 C17.8647273,0 21.2334545,0 21.8705455,0.954181818 L18.5629091,0.954181818 L18.5629091,1.97090909 L23.648,2.03345455 C23.648,2.03345455 24.4756364,2.60654545 24.4756364,3.05018182 L18.5629091,3.11418182 L18.5629091,4.06690909 L25.1112727,4.06690909 C25.1112727,4.06690909 25.8749091,4.44945455 25.6858182,5.27563636 L5.27854545,5.27563636 L5.27854545,6.35781818 L26,6.29381818 C26,6.29381818 26.128,7.12 26.128,7.37454545 L5.27854545,7.37454545 L5.27854545,8.45381818 L26.1905455,8.39127273 C26.1905455,8.39127273 26.3185455,9.02690909 26,9.47054545 L5.27854545,9.66254545 L5.27854545,10.6792727 L25.6858182,10.5512727 C25.6858182,10.5512727 25.6858182,11.3789091 25.1738182,11.6334545 L5.27854545,11.76 L5.27854545,12.7141818 L24.5410909,12.5861818 C24.5410909,12.5861818 24.4756364,13.6029091 23.776,13.7949091 L5.27854545,13.8574545 L5.27854545,14.8741818 L22.2501818,14.7476364 C22.2501818,14.7476364 21.8705455,16.0189091 19.2625455,15.8909091 L16.0858182,15.8283636 L16.0858182,16.7825455 L21.2334545,16.8465455 C21.2334545,16.8465455 23.3949091,16.8465455 23.7134545,17.7352727 L16.0858182,17.9272727 L16.0858182,18.88 L25.0487273,18.88 C25.0487273,18.88 25.8749091,19.5156364 25.8749091,19.8967273 L5.27854545,20.0232727 L5.27854545,21.168 L26.3185455,20.9774545 C26.3185455,20.9774545 27.1461818,21.5490909 27.1461818,22.1221818 L5.27854545,22.2472727 L5.27854545,23.2029091 L27.4632727,23.2029091 C27.4632727,23.2029091 27.7163636,23.52 27.5912727,24.0930909 L5.27854545,24.2836364 L5.27854545,25.2363636 L27.5912727,25.2363636 C27.5912727,25.2363636 27.7818182,25.8094545 27.5912727,26.2530909 L5.27854545,26.3810909 L5.27854545,27.3978182 L27.4007273,27.3978182 C27.4007273,27.3978182 27.5912727,28.0334545 27.0836364,28.5425455 L5.27854545,28.5425455 L5.27854545,29.5592727 L26.6370909,29.4952727 C26.6370909,29.4952727 26.5745455,30.5134545 26.128,30.576 L18.5629091,30.576 L18.5629091,31.6567273 L25.1112727,31.5927273 C25.1112727,31.5927273 24.6647273,32.6094545 24.2225455,32.7374545 L18.5629091,32.8014545 L18.5629091,33.8821818 L22.3781818,33.8196364 C22.3781818,33.8196364 21.8050909,35.0269091 16.784,34.8363636 L0,34.7723636 L0,0" id="Fill-93-Copy" fill="#E7B916"></path>
                    <path d="M38.6976231,26.2647273 C38.6976231,26.2647273 38.6350777,28.1090909 38.6976231,28.4901818 C38.6976231,28.4901818 38.1274413,30.3330909 36.5390777,30.6516364 C36.5390777,30.6516364 33.4845322,32.4945455 32.467805,30.1425455 C32.467805,30.1425455 32.0241686,28.7432727 33.4845322,28.1716364 C33.4845322,28.1716364 38.4445322,26.9003636 38.6976231,26.2647273 L38.6976231,26.2647273 Z M62.5361686,10.1818182 L66.9870777,10.2458182 L67.2401686,23.4676364 L72.643805,16.4116364 L78.1754413,16.4116364 L73.1528959,23.3410909 L79.1921686,34.4014545 L73.5979868,34.592 L69.7201686,27.472 L67.3681686,30.6516364 L67.4307141,34.5294545 L62.6641686,34.5294545 L62.5361686,10.1818182 L62.5361686,10.1818182 Z M45.0554413,17.2378182 L49.8888959,17.2378182 L49.8234413,19.0821818 C49.8234413,19.0821818 52.4939868,16.3490909 54.5274413,16.6021818 C54.5274413,16.6021818 59.6779868,15.5869091 60.6947141,21.6247273 L60.819805,34.592 L56.0532595,34.592 L55.9907141,22.896 C55.9907141,22.896 54.6554413,19.5258182 51.2227141,21.6887273 C51.2227141,21.6887273 49.6954413,22.2589091 49.9499868,26.2007273 L50.0125322,34.592 L45.1834413,34.5294545 L45.0554413,17.2378182 L45.0554413,17.2378182 Z M28.3994413,22.5774545 C28.3994413,22.5774545 27.827805,17.8749091 33.1688959,16.9832727 C33.1688959,16.9832727 43.0845322,14.9498182 43.3405322,21.1156364 L43.5296231,32.5570909 L44.1667141,34.5294545 L39.0816231,34.656 L38.7630777,32.8756364 C38.7630777,32.8756364 36.2205322,35.5461818 32.0867141,34.592 C32.0867141,34.592 27.6387141,34.2749091 27.6387141,29.3789091 C27.6387141,29.3789091 27.4481686,26.1367273 30.4983504,24.9934545 C30.4983504,24.9934545 35.4568959,23.5941818 36.9812595,23.5941818 C36.9812595,23.5941818 40.3514413,23.0225455 37.4903504,20.6705455 C37.4903504,20.6705455 33.2939868,19.7163636 33.1688959,22.5134545 L28.3994413,22.5774545 L28.3994413,22.5774545 Z" id="Fill-94-Copy" fill="#602A7A"></path>
                </g>
            </g>
        </g>
    </g>
</svg>