<?xml version="1.0" encoding="UTF-8"?>
<svg width="80px" height="76px" viewBox="0 0 80 76" version="1.1" xmlns="http://www.w3.org/2000/svg" xmlns:xlink="http://www.w3.org/1999/xlink">
    <!-- Generator: Sketch 44.1 (41455) - http://www.bohemiancoding.com/sketch -->
    <title>华夏</title>
    <desc>Created with Sketch.</desc>
    <defs></defs>
    <g id="Page-1" stroke="none" stroke-width="1" fill="none" fill-rule="evenodd">
        <g id="app" transform="translate(-4.000000, -1112.000000)">
            <g id="华夏" transform="translate(4.000000, 1110.000000)">
                <rect id="Rectangle-Copy-9" x="0" y="0" width="80" height="80"></rect>
                <g id="Group-4-Copy" transform="translate(0.470588, 1.882353)">
                    <path d="M76.3779274,15.4394531 L73.5879274,11.8647656 C73.5879274,11.8647656 62.6410524,13.6521094 62.8638649,7.51023437 C62.8638649,7.51023437 63.6437086,2.93046875 55.7169118,4.7178125 C55.7169118,4.7178125 53.8157399,2.93046875 53.9271461,1.92539063 C53.9271461,1.92539063 54.4865993,-0.755625 45.8865211,0.6975 C45.8865211,0.6975 33.1523024,2.25960937 19.190193,18.231875 C19.190193,18.231875 5.11667739,29.7357813 5.11667739,17.8976562 C5.11667739,17.8976562 -2.59215074,25.7154687 1.54198989,31.9711719 C1.54198989,31.9711719 6.23316176,38.5610937 15.1698805,33.1990625 C15.1698805,33.1990625 12.3774586,54.8675781 26.6737868,66.1486719 C26.6737868,66.1486719 41.6385524,79.999375 58.8435524,75.0853906 C58.8435524,75.0853906 73.2512868,72.0677344 78.7247243,57.5485938 C78.7247243,57.5485938 76.1551149,60.1182031 75.0386305,59.8929688 C75.0386305,59.8929688 78.9475368,55.2042187 79.1679274,53.1916406 C79.1679274,53.1916406 79.058943,50.3992188 76.8283961,54.7561719 C76.8283961,54.7561719 77.3854274,52.0751563 75.8184743,53.416875 C75.8184743,53.416875 68.2234743,62.2397656 64.9878493,62.6853906 C64.9878493,62.6853906 40.9725368,76.8727344 30.020818,48.2776562 C30.020818,48.2776562 25.3344899,34.7635937 36.3879274,24.5989844 C47.4486305,14.434375 58.2840993,15.4394531 68.2234743,22.8116406 C68.2234743,22.8116406 73.2512868,17.1153906 75.3752711,18.231875 C75.3752711,18.231875 77.2715993,17.1153906 76.3779274,15.4394531" id="Fill-74" fill="#D9222A"></path>
                    <polygon id="Fill-75" fill="#D8232A" points="66.6613649 32.5282031 66.6613649 50.6220312 42.8688649 50.6220312 42.8688649 32.6420312"></polygon>
                </g>
            </g>
        </g>
    </g>
</svg>