<?xml version="1.0" encoding="UTF-8"?>
<svg width="79px" height="61px" viewBox="0 0 79 61" version="1.1" xmlns="http://www.w3.org/2000/svg" xmlns:xlink="http://www.w3.org/1999/xlink">
    <!-- Generator: Sketch 44.1 (41455) - http://www.bohemiancoding.com/sketch -->
    <title>民生银行</title>
    <desc>Created with Sketch.</desc>
    <defs></defs>
    <g id="Page-1" stroke="none" stroke-width="1" fill="none" fill-rule="evenodd">
        <g id="app" transform="translate(-5.000000, -999.000000)">
            <g id="民生银行" transform="translate(4.000000, 990.000000)">
                <rect id="Rectangle-Copy-8" x="0" y="0" width="80" height="80"></rect>
                <g id="Group-Copy" transform="translate(0.000000, 8.470588)">
                    <path d="M40.3672515,10.0187135 L57.7356725,19.7239766 L49.948538,24.5146199 C49.948538,24.5146199 69.2350877,26.671345 76.3017544,35.6584795 C76.3017544,35.6584795 86.9403509,50.8959064 62.1450292,58.6853801 C62.1450292,58.6853801 14.1356725,70.4 0.961403509,43.6842105 L12.219883,43.3239766 C12.219883,43.3239766 20.9614035,59.8105263 39.4105263,57.7730994 C39.4105263,57.7730994 71.871345,56.6245614 66.3602339,38.7719298 C66.3602339,38.7719298 59.7730994,26.7929825 37.6140351,27.0315789 L23.9578947,19.3637427 L40.3672515,10.0187135 L40.3672515,10.0187135 Z M40.0093567,15.0502924 L47.794152,19.2444444 L40.3672515,23.7964912 L32.5824561,19.8432749 L40.0093567,15.0502924 L40.0093567,15.0502924 Z" id="Fill-66" fill="#292D78"></path>
                    <path d="M41.3730994,1.06666667 C53.5134503,1.90643275 73.548538,4.84210526 79.4385965,19.1064327 L67.4105263,19.1064327 C63.1859649,0.533333333 20.1847953,-2.13099415 13.754386,16.3298246 C10.451462,24.7929825 22.7602339,34.4982456 31.6233918,34.3789474 C33.4666667,34.3532164 36.4140351,33.3450292 39.2116959,33.9859649 L54.8584795,42.3017544 L39.1953216,51.4830409 C33.4900585,48.2479532 27.7847953,45.0081871 22.0795322,41.7707602 C24.7017544,40.2292398 27.3239766,38.6877193 29.9438596,37.1461988 C17.1274854,35.8011696 -1.17426901,28.7695906 1.26315789,16.7929825 C4.32982456,1.74502924 29.2327485,0.226900585 41.3730994,1.06666667 L41.3730994,1.06666667 Z M32.102924,42.3672515 L39.8900585,38.0538012 L47.794152,42.3672515 L39.6491228,46.6807018 L32.102924,42.3672515 L32.102924,42.3672515 Z" id="Fill-67" fill="#52996D"></path>
                </g>
            </g>
        </g>
    </g>
</svg>