<?xml version="1.0" encoding="UTF-8"?>
<svg width="80px" height="69px" viewBox="0 0 80 69" version="1.1" xmlns="http://www.w3.org/2000/svg" xmlns:xlink="http://www.w3.org/1999/xlink">
    <!-- Generator: Sketch 44.1 (41455) - http://www.bohemiancoding.com/sketch -->
    <title>广发</title>
    <desc>Created with Sketch.</desc>
    <defs></defs>
    <g id="Page-1" stroke="none" stroke-width="1" fill="none" fill-rule="evenodd">
        <g id="app" transform="translate(-4.000000, -1956.000000)">
            <g id="广发" transform="translate(4.000000, 1950.000000)">
                <rect id="Rectangle-Copy-15" x="0" y="0" width="80" height="80"></rect>
                <g id="Group-2" transform="translate(0.000000, 5.647059)">
                    <path d="M40.2126036,26.6713101 C37.1835489,32.8394362 33.3586733,39.7149585 28.5837479,46.8732338 C37.1619569,46.3221227 45.0204312,46.4496186 51.8702488,46.9123051 C47.0829851,39.7416915 43.2467993,32.8507463 40.2126036,26.6713101" id="Fill-9" fill="#FFFFFF"></path>
                    <path d="M0.786567164,51.1278939 C0.631310116,50.8636484 21.4717413,27.204942 30.3728027,0.3639801 L50.3670315,0.3639801 C50.3670315,0.3639801 41.8762189,36.1049751 11.2011277,68.8343947 L0.786567164,51.1278939" id="Fill-10" fill="#A72A2F"></path>
                    <path d="M79.6664013,51.1278939 C79.8216584,50.8636484 58.9812272,27.204942 50.0801658,0.3639801 L30.0869652,0.3639801 C30.0869652,0.3639801 38.9900829,35.87466 69.6651741,68.6040796 L79.6664013,51.1278939" id="Fill-11" fill="#C5282B"></path>
                    <path d="M10.9132338,68.8282255 C11.0633499,69.0945274 41.9749254,62.8749917 69.6692869,68.5876285 L79.6664013,51.272869 C79.6664013,51.272869 44.4672637,40.754461 0.786567164,50.9551575 L10.9132338,68.8282255" id="Fill-12" fill="#5D2021"></path>
                    <path d="M30.2082919,0.848258706 C30.2627861,0.686832504 30.3193367,0.525406302 30.3728027,0.3639801 L50.0801658,0.3639801 C50.1336318,0.525406302 50.1891542,0.686832504 50.2446766,0.848258706 C49.6555224,3.11233831 46.8393035,13.20199 40.2259701,26.6682255 C33.613665,13.2030182 30.7974461,3.1133665 30.2082919,0.848258706" id="Fill-13" fill="#5D2021"></path>
                    <path d="M51.8815589,46.906136 C56.5814262,53.9461692 62.4390381,61.2977446 69.1181758,68.4704146 L69.6662023,68.5804312 L79.5954561,51.2512769 C78.6690547,50.9829187 68.1228856,48.0042454 51.8815589,46.906136" id="Fill-14" fill="#A72A2F"></path>
                    <path d="M10.914262,68.8333665 L10.9420232,68.8302819 C17.7908126,61.5208624 23.8077944,54.0459038 28.5960862,46.8680929 C19.9890879,47.4222886 10.6633831,48.6571476 0.908922056,50.9273964 C0.878076285,50.9695522 0.852371476,51.0065672 0.832835821,51.0363847 L10.914262,68.8333665" id="Fill-15" fill="#C5282B"></path>
                </g>
            </g>
        </g>
    </g>
</svg>