<?xml version="1.0" encoding="UTF-8"?>
<svg width="80px" height="80px" viewBox="0 0 80 80" version="1.1" xmlns="http://www.w3.org/2000/svg" xmlns:xlink="http://www.w3.org/1999/xlink">
    <!-- Generator: Sketch 44.1 (41455) - http://www.bohemiancoding.com/sketch -->
    <title>招商银行</title>
    <desc>Created with Sketch.</desc>
    <defs></defs>
    <g id="Page-1" stroke="none" stroke-width="1" fill="none" fill-rule="evenodd">
        <g id="app" transform="translate(-4.000000, -510.000000)">
            <g id="招商银行" transform="translate(4.000000, 510.000000)">
                <rect id="Rectangle-Copy-4" x="0" y="0" width="80" height="80"></rect>
                <path d="M40.0012015,0 L41.6545012,0 L43.403923,0.182626457 L45.0572227,0.273939685 L46.6192064,0.55028235 L48.2773122,0.826625015 L49.8392959,1.19428091 L51.4036827,1.65565301 L52.9656664,2.11221915 L53.7034033,2.3909648 L54.4387372,2.66490448 L57.3824757,3.9529016 L58.7570214,4.68821338 L60.1363732,5.42352517 L61.515725,6.25255317 L62.8085669,7.17049141 L64.0941996,8.09083263 L65.2909195,9.01117386 L66.4828332,10.0228283 L67.679553,11.125796 L68.7825538,12.2287637 L69.8855547,13.3317313 L70.8996425,14.5284152 L71.3586255,15.1724138 L71.8200114,15.8164124 L72.8292932,17.1020065 L73.6583461,18.3900036 L74.4849959,19.6780007 L75.3116458,21.0573111 L75.9532606,22.5279346 L76.6909976,23.907245 L77.2436995,25.3802715 L77.7939984,26.9422083 L78.3467003,28.4128319 L61.239374,28.4128319 L50.6659458,3.67655893 L39.6311315,31.5391085 L28.0436154,3.9529016 L7.63209276,56.6430374 L16.9198883,68.2302055 L64.1831126,68.2302055 L72.8292932,55.6313829 L72.0026434,53.7017902 L77.6113664,53.7017902 L77.0562615,55.1724138 L76.4146466,56.5517241 L75.7706287,57.9310345 L75.1290138,59.2190316 L74.302364,60.5983419 L73.5646271,61.8839361 L72.6442582,63.08062 L71.8200114,64.2749009 L70.8996425,65.4715848 L69.8855547,66.6658657 L68.8762729,67.6775201 L67.7732721,68.7804878 L65.5624643,70.8037967 L64.3705506,71.7241379 L63.1738308,72.6444792 L61.9771109,73.4711042 L60.6914782,74.3001322 L59.4058454,75.035444 L58.0240906,75.7683528 L56.6447388,76.4123513 L55.265387,76.9650366 L53.7971223,77.517722 L52.4153675,78.0680043 L50.9422967,78.5293764 L49.380313,78.8970323 L47.9048391,79.2646882 L46.3476615,79.5410309 L45.6099246,79.6323441 L44.7808717,79.7236573 L43.2164849,79.9062838 L41.6545012,80 L37.9802349,80 L35.9568652,79.8149706 L33.9286894,79.5410309 L31.9053198,79.170972 L29.9756691,78.7120029 L28.1373344,78.2530338 L26.2965967,77.6090352 L24.458262,76.8737234 L22.7112433,76.0470984 L20.9642246,75.2180704 L20.1351717,74.6653851 L19.3085218,74.206416 L17.6528191,73.1947615 L16.0884323,72.0917938 L14.5264486,70.8951099 L13.7935178,70.2511114 L13.1470968,69.6095158 L12.414166,68.9655172 L10.3907963,66.9422083 L9.10035745,65.4715848 L8.55005857,64.736273 L7.99735664,63.907245 L6.80544291,62.3453082 L6.34646,61.6099964 L5.79135502,60.7809684 L5.33237211,59.9543434 L4.87098615,59.0340022 L3.95061728,57.3783492 L3.12637049,55.5400697 L2.48235259,53.7931034 L1.84073774,51.8611078 L1.28563275,50.0228283 L1.00928179,49.0111739 L0.826649845,48.0908326 L0.641614851,47.0791782 L0.458982908,46.0675237 L0.182631943,44.137931 L0.0889129194,42.0209059 L0,41.0092515 L0,40 L0.0889129194,37.9766911 L0.182631943,35.9533822 L0.458982908,33.9300733 L0.826649845,31.9067644 L1.28563275,29.9771717 L1.84073774,28.1364892 L2.48235259,26.2982098 L3.12637049,24.4599303 L3.95061728,22.7129641 L4.87098615,20.9659978 L5.33237211,20.1369698 L5.79135502,19.3103448 L6.80544291,17.6546918 L7.99735664,16.090352 L9.10035745,14.5284152 L9.74918146,13.7931034 L10.3907963,13.1491049 L11.0348142,12.4137931 L11.7701481,11.7697945 L13.1470968,10.3904842 L14.5264486,9.10248708 L15.3579045,8.55220473 L16.0884323,7.9995194 L17.6528191,6.80283552 L18.481872,6.34386639 L19.3085218,5.79118106 L20.1351717,5.33221194 L20.9642246,4.87324282 L22.7112433,3.9529016 L24.458262,3.12627658 L26.2965967,2.3909648 L28.1373344,1.83827947 L29.9756691,1.28559414 L30.9849509,1.00925147 L31.9053198,0.826625015 L32.9194076,0.643998558 L33.9286894,0.458969122 L35.9568652,0.182626457 L37.9802349,0.0913132284 L38.9871136,0 L40.0012015,0 L40.0012015,0 Z M62.1597429,30.6187673 L78.8969992,30.6187673 L79.2670692,32.2744203 L62.8974798,32.2744203 L62.1597429,30.6187673 L62.1597429,30.6187673 Z M63.8178487,34.4827586 L79.6347361,34.4827586 L79.8173681,36.1384116 L64.4594635,36.1384116 L63.8178487,34.4827586 L63.8178487,34.4827586 Z M65.4735514,38.344347 L80,38.344347 L80,40 L66.1175693,40 L65.4735514,38.344347 L65.4735514,38.344347 Z M67.0355351,42.2059354 L80,42.2059354 L79.8173681,43.8615884 L67.7732721,43.8615884 L67.0355351,42.2059354 L67.0355351,42.2059354 Z M68.6888348,46.0675237 L79.538614,46.0675237 L79.2670692,47.7231767 L69.4265717,47.7231767 L68.6888348,46.0675237 L68.6888348,46.0675237 Z M70.3445376,49.9291121 L78.8080863,49.9291121 L78.3467003,51.4934519 L71.0822745,51.4934519 L70.3445376,49.9291121 L70.3445376,49.9291121 Z M13.9761497,56.1840682 L24.828332,28.7804878 L36.1394972,56.1840682 L13.9761497,56.1840682 L13.9761497,56.1840682 Z M36.687393,56.1840682 L47.5395753,28.7804878 L58.8507404,56.1840682 L36.687393,56.1840682 L36.687393,56.1840682 Z" id="Fill-45-Copy" fill="#D9222A"></path>
            </g>
        </g>
    </g>
</svg>