<?xml version="1.0" encoding="UTF-8"?>
<svg width="80px" height="52px" viewBox="0 0 80 52" version="1.1" xmlns="http://www.w3.org/2000/svg" xmlns:xlink="http://www.w3.org/1999/xlink">
    <!-- Generator: Sketch 44.1 (41455) - http://www.bohemiancoding.com/sketch -->
    <title>兴业银行</title>
    <desc>Created with Sketch.</desc>
    <defs></defs>
    <g id="Page-1" stroke="none" stroke-width="1" fill="none" fill-rule="evenodd">
        <g id="app" transform="translate(-4.000000, -884.000000)">
            <g id="兴业银行" transform="translate(4.000000, 870.000000)">
                <rect id="Rectangle-Copy-7" x="0" y="0" width="80" height="80"></rect>
                <path d="M79.9929252,39.7462022 C79.9929252,29.4912885 66.0944927,21.1784058 48.9540359,21.1784058 C35.2324733,21.1784058 23.5909,26.5128003 19.4963631,33.8953477 L19.4963631,33.8900416 C19.1178616,34.5762966 18.9073865,35.3226873 18.9073865,36.104452 C18.9073865,37.9456671 20.0676527,39.5834819 21.8805686,40.6535445 L37.6166788,49.7375798 C38.4320488,50.1815231 39.4012956,50.4432905 40.4483651,50.4432905 C41.4989719,50.4432905 42.4699874,50.1815231 43.2853574,49.7393485 L58.2078663,41.1169435 C59.2177931,40.5350417 59.8562933,39.624162 59.8562933,38.6071604 C59.8562933,37.6184579 59.2513984,36.7411835 58.2980699,36.1539756 L52.7496628,32.9455566 L40.4483651,40.0451122 L31.1450112,34.6682689 C34.7390064,31.429782 41.4370675,29.2507455 49.1096814,29.2507455 C60.5779222,29.2507455 69.8777387,34.1199724 69.8777387,40.1317784 C69.6318896,49.436901 55.986381,56.6372725 39.4083704,56.2074787 C22.8232849,55.7688415 9.58280825,47.8627594 9.82511994,38.5594055 L9.82158254,38.5594055 C9.93831664,26.2899443 26.0263978,16.4948922 45.7438482,16.6859117 C47.5054719,16.7053673 49.2264155,16.7973397 50.9084477,16.9671347 C46.8634344,15.4743532 41.8102629,14.5882353 36.3096107,14.5882353 C31.9197011,14.5882353 27.8057085,15.1595249 24.2683116,16.1429212 C9.99668369,20.0605883 0,29.1552358 0,39.7462022 C0,53.9293951 17.9080719,65.4294725 39.9991157,65.4294725 C62.0919281,65.4294725 80,53.9293951 80,39.7462022 L79.9929252,39.7462022" id="Fill-124-Copy" fill="#003D6E"></path>
            </g>
        </g>
    </g>
</svg>