<?xml version="1.0" encoding="UTF-8"?>
<svg width="80px" height="68px" viewBox="0 0 80 68" version="1.1" xmlns="http://www.w3.org/2000/svg" xmlns:xlink="http://www.w3.org/1999/xlink">
    <!-- Generator: Sketch 44.1 (41455) - http://www.bohemiancoding.com/sketch -->
    <title>浦发</title>
    <desc>Created with Sketch.</desc>
    <defs></defs>
    <g id="Page-1" stroke="none" stroke-width="1" fill="none" fill-rule="evenodd">
        <g id="app" transform="translate(-4.000000, -1595.000000)">
            <g id="浦发" transform="translate(4.000000, 1590.000000)">
                <rect id="Rectangle-Copy-12" x="0" y="0" width="80" height="80"></rect>
                <g id="Group-7" transform="translate(0.000000, 5.647059)" fill="#003473">
                    <path d="M17.303268,26.221658 C23.5070834,20.9192937 30.1359365,21.3920525 32.4720382,21.7788843 C31.2656248,19.2693045 26.6036943,11.2877595 16.1350566,11.2877595 C6.4824655,11.2877595 0,19.8189791 0,27.7860421 L0,57.2959712 C0,59.1644785 1.41026449,60.2995501 1.41026449,60.2995501 L9.98613649,66.8978976 C9.98613649,66.8978976 11.6949546,68.3380579 11.6949546,66.1345323 L11.6949546,39.2921982 C11.6949546,39.2394192 11.6660623,39.0067408 11.6660623,38.6060705 C11.6660623,36.6075465 12.1466373,30.6776264 17.303268,26.221658 M79.3606842,10.0554973 C79.3606842,8.20050653 77.9523458,7.04709105 77.9523458,7.04709105 L69.4050451,0.461938259 C69.4050451,0.461938259 67.684349,-0.977256505 67.684349,1.22498182 C67.684349,8.70287304 67.6660506,27.6157974 67.6660506,27.6157974 C67.684349,27.669542 67.6933377,27.9057604 67.6933377,28.2974196 C67.6933377,30.2994837 67.2304191,36.2297257 62.0509957,40.6773267 C55.870294,45.9829091 49.2334153,45.501783 46.9095126,45.1252495 C48.1200993,47.6341856 52.7646945,55.6157306 63.244247,55.6157306 C72.8994063,55.6157306 79.3793036,47.0800055 79.3793036,39.115839 C79.3793036,39.115839 79.3606842,23.8173145 79.3606842,10.0554973 M51.9717618,25.6455939 L52.2292242,25.4093754 C57.3704456,21.2163368 63.5315647,21.5944794 65.5999312,21.8715695 C64.761734,19.4582149 61.0583852,11.4206726 50.0558824,11.4206726 C43.8324843,11.4206726 39.7689451,14.729662 37.4694403,17.5201937 C34.7410456,20.8137356 34.0688184,24.6859161 33.9140842,26.7053587 C33.0203495,36.2886194 27.915404,40.8797537 27.3353111,41.3830856 C21.642568,46.0997311 15.8095369,45.4795772 13.7203037,45.0418972 C14.7158034,47.6126234 18.7385724,55.8136521 29.6601769,55.5391366 C34.01296,55.4091199 37.8466451,53.7163282 41.0633194,50.4774964 C44.6591247,46.8782222 45.422523,41.2797803 45.5746891,39.6352621 C46.3435449,31.4403481 50.291515,27.1308094 51.9717618,25.6455939" id="Fill-5"></path>
                </g>
            </g>
        </g>
    </g>
</svg>