<?xml version="1.0" encoding="UTF-8"?>
<svg width="80px" height="28px" viewBox="0 0 80 28" version="1.1" xmlns="http://www.w3.org/2000/svg" xmlns:xlink="http://www.w3.org/1999/xlink">
    <!-- Generator: Sketch 44.1 (41455) - http://www.bohemiancoding.com/sketch -->
    <title>平安银行</title>
    <desc>Created with Sketch.</desc>
    <defs></defs>
    <g id="Page-1" stroke="none" stroke-width="1" fill="none" fill-rule="evenodd">
        <g id="app" transform="translate(-4.000000, -1856.000000)">
            <g id="平安银行" transform="translate(4.000000, 1830.000000)">
                <rect id="Rectangle-Copy-14" x="0" y="0" width="80" height="80"></rect>
                <g id="Group-8" transform="translate(0.000000, 25.882353)">
                    <path d="M68.9202405,2.9240498 C68.9202405,2.9240498 68.4387656,2.9240498 68.4387656,2.44459479 L68.4387656,1.00593845 L68.9202405,0.526192154 L79.025378,0.526192154 L79.025378,2.44459479 C79.025378,2.9240498 79.025378,2.9240498 79.025378,2.9240498 L68.9202405,2.9240498 Z M68.4387656,7.71976509 C67.9602087,7.71976509 67.9602087,7.24031008 67.9602087,7.24031008 L67.9602087,5.80165375 C67.9602087,5.80165375 67.9602087,5.32161616 68.4387656,5.32161616 L79.5068529,5.32161616 L79.9854099,5.80165375 L79.9854099,7.24031008 L79.5068529,7.71976509 L77.5809532,7.71976509 L77.5809532,13.9538454 C77.5809532,14.9127555 76.6180034,15.3922105 76.1365284,15.3922105 L70.8461402,15.3922105 C70.3646653,15.3922105 70.3646653,15.3922105 70.3646653,14.9127555 L70.3646653,13.9538454 C70.3646653,13.4743904 70.3646653,13.4743904 70.8461402,13.4743904 L74.6950217,13.4743904 L74.6950217,7.71976509 L68.4387656,7.71976509 Z M61.2224777,9.63787644 L60.7410027,9.63787644 C60.7410027,9.15842142 60.7410027,9.15842142 61.2224777,9.15842142 L64.1084092,5.80165375 C64.1084092,5.32161616 64.1084092,5.32161616 64.5898842,5.32161616 L66.9972588,5.32161616 C66.9972588,5.32161616 66.9972588,5.32161616 66.9972588,5.80165375 L64.5898842,8.67867512 L65.552834,8.67867512 L65.552834,14.9127555 C65.552834,15.3922105 65.552834,15.3922105 65.0713591,15.3922105 L63.1483774,15.3922105 C63.1483774,15.3922105 63.1483774,15.3922105 63.1483774,14.9127555 L63.1483774,9.63787644 L61.2224777,9.63787644 Z M61.2224777,4.84216115 L60.7410027,4.84216115 L60.7410027,4.36270613 L64.1084092,1.00593845 C64.1084092,0.526192154 64.1084092,0.526192154 64.5898842,0.526192154 L66.9972588,0.526192154 L66.9972588,1.00593845 L64.1084092,4.84216115 C63.6298523,4.84216115 63.6298523,4.84216115 63.6298523,4.84216115 L61.2224777,4.84216115 L61.2224777,4.84216115 Z" id="Fill-18" fill="#DB6831"></path>
                    <path d="M56.3808825,9.63787644 C56.8617738,9.63787644 56.8617738,9.63787644 56.8617738,9.63787644 L59.2682731,9.63787644 C59.2682731,9.63787644 58.7867981,9.63787644 58.7867981,10.1173315 L56.3808825,12.5151891 L56.8617738,12.9949354 C56.8617738,13.4743904 56.8617738,13.4743904 56.8617738,13.4743904 C57.3429569,13.4743904 57.3429569,13.4743904 57.8238483,13.4743904 L58.7867981,13.4743904 L59.2682731,13.9538454 L59.2682731,14.9127555 C59.2682731,15.3922105 58.7867981,15.3922105 58.7867981,15.3922105 L57.3429569,15.3922105 C55.8996994,15.3922105 55.4185162,14.9127555 54.9373331,14.4333004 L52.5317093,9.63787644 C52.0505261,9.63787644 52.0505261,9.63787644 52.0505261,9.63787644 C52.0505261,9.63787644 52.0505261,9.63787644 52.5317093,9.63787644 L54.45615,9.63787644 C54.45615,9.63787644 54.45615,9.63787644 54.9373331,9.63787644 L55.4185162,11.0768241 L56.3808825,9.63787644 Z M51.0884517,6.76056378 L56.3808825,6.76056378 L56.3808825,5.80165375 L51.0884517,5.80165375 L51.0884517,6.76056378 Z M51.0884517,3.88325112 L56.3808825,3.88325112 L56.3808825,2.44459479 L51.0884517,2.44459479 L51.0884517,3.88325112 Z M51.0884517,13.4743904 L53.0128924,13.4743904 L53.4940755,13.9538454 L53.4940755,14.9127555 C53.4940755,15.3922105 53.0128924,15.3922105 53.0128924,15.3922105 L50.1263772,15.3922105 C49.164011,15.3922105 48.6828278,14.9127555 48.6828278,13.9538454 L48.6828278,1.96513977 C48.6828278,1.48568475 49.164011,0.526192154 50.1263772,0.526192154 L57.3429569,0.526192154 C58.3053232,0.526192154 58.7867981,1.48568475 58.7867981,1.96513977 L58.7867981,7.24031008 C58.7867981,8.19922011 58.3053232,8.67867512 57.3429569,8.67867512 L51.0884517,8.67867512 L51.0884517,13.4743904 Z M45.3151295,8.67867512 L47.2395703,8.67867512 C47.7207534,8.67867512 47.7207534,9.15842142 47.7207534,9.15842142 L47.7207534,10.5970778 C47.7207534,10.5970778 47.7207534,10.5970778 47.2395703,10.5970778 L45.3151295,10.5970778 L45.3151295,13.4743904 L46.7583871,13.4743904 C47.2395703,13.4743904 47.2395703,13.9538454 47.2395703,13.9538454 L47.2395703,14.9127555 C47.2395703,15.3922105 47.2395703,15.3922105 46.7583871,15.3922105 L44.3530551,15.3922105 C43.3906888,15.3922105 42.9092139,14.9127555 42.9092139,13.9538454 L42.9092139,10.5970778 L40.5038819,10.5970778 L40.5038819,9.15842142 L40.9853568,8.67867512 L42.9092139,8.67867512 L42.9092139,7.24031008 L40.9853568,7.24031008 C40.9853568,7.24031008 40.5038819,7.24031008 40.5038819,6.76056378 L40.5038819,5.80165375 C40.5038819,5.32161616 40.9853568,5.32161616 40.9853568,5.32161616 L47.2395703,5.32161616 C47.7207534,5.32161616 47.7207534,5.32161616 47.7207534,5.80165375 L47.7207534,6.76056378 C47.7207534,7.24031008 47.7207534,7.24031008 47.2395703,7.24031008 L45.3151295,7.24031008 L45.3151295,8.67867512 Z M47.2395703,1.48568475 C47.7207534,1.48568475 47.7207534,1.96513977 47.7207534,1.96513977 L47.7207534,3.4037961 C47.7207534,3.4037961 47.7207534,3.88325112 47.2395703,3.88325112 L43.3906888,3.88325112 L42.9092139,4.36270613 C42.9092139,4.36270613 42.9092139,4.36270613 42.4283226,4.36270613 L40.0229905,4.36270613 C40.0229905,4.36270613 40.0229905,4.36270613 40.5038819,4.36270613 L41.9474312,1.00593845 C42.4283226,0.526192154 42.4283226,0.526192154 42.4283226,0.526192154 L44.8339464,0.526192154 C44.8339464,0.526192154 44.8339464,0.526192154 44.8339464,1.00593845 L44.3530551,1.48568475 L47.2395703,1.48568475 L47.2395703,1.48568475 Z" id="Fill-19" fill="#DB6831"></path>
                    <path d="M25.3701035,8.8668452 C25.3701035,9.82604651 25.3701035,9.82604651 26.8136528,10.3055015 L28.7378018,11.2649941 L31.1437174,10.3055015 C32.1057918,9.82604651 32.1057918,9.82604651 32.1057918,8.8668452 L32.1057918,7.90793517 L25.3701035,7.90793517 L25.3701035,8.8668452 Z M27.294836,0.714362227 C27.294836,0.234907212 27.7757273,0.234907212 27.7757273,0.234907212 L30.1813511,0.234907212 C30.1813511,0.234907212 30.1813511,0.234907212 30.1813511,0.714362227 L30.1813511,1.19410853 L36.4361482,1.19410853 C37.3985145,1.19410853 37.8794058,2.15330984 37.8794058,3.11221987 L37.8794058,4.5508762 L36.4361482,4.5508762 C35.9546733,4.5508762 35.9546733,4.07142119 35.9546733,4.07142119 L35.9546733,3.11221987 L22.0024052,3.11221987 L22.0024052,4.07142119 C22.0024052,4.07142119 22.0024052,4.5508762 21.521222,4.5508762 L20.0776727,4.5508762 L19.5967813,4.07142119 L19.5967813,3.11221987 C19.5967813,2.15330984 20.5591476,1.19410853 21.521222,1.19410853 L27.294836,1.19410853 L27.294836,0.714362227 Z M20.0776727,7.90793517 C19.5967813,7.90793517 19.5967813,7.90793517 19.5967813,7.42848015 L19.5967813,6.46927883 C19.5967813,5.98982382 19.5967813,5.98982382 20.0776727,5.98982382 L22.9644796,5.98982382 L22.9644796,4.5508762 C22.9644796,4.5508762 22.9644796,4.07142119 23.4459545,4.07142119 L25.3701035,4.07142119 L25.3701035,5.98982382 L32.1057918,5.98982382 L32.1057918,4.5508762 L32.586975,4.07142119 L34.5114157,4.07142119 C34.992307,4.07142119 34.992307,4.5508762 34.992307,4.5508762 L34.992307,5.98982382 L37.8794058,5.98982382 C37.8794058,5.98982382 37.8794058,5.98982382 37.8794058,6.46927883 L37.8794058,7.42848015 C37.8794058,7.90793517 37.8794058,7.90793517 37.8794058,7.90793517 L34.992307,7.90793517 L34.992307,8.8668452 C34.992307,10.3055015 34.5114157,10.7852478 32.1057918,12.2239042 L31.1437174,12.2239042 L31.6246087,12.7033592 C32.586975,13.1831055 33.5493412,13.1831055 34.5114157,13.1831055 L37.3985145,13.1831055 C37.3985145,13.1831055 37.8794058,13.1831055 37.8794058,13.6625605 L37.8794058,14.6214705 C37.8794058,15.1009255 37.3985145,15.1009255 37.3985145,15.1009255 L34.5114157,15.1009255 C33.0678663,15.1009255 32.1057918,15.1009255 30.6625343,14.1420155 L28.7378018,13.6625605 L27.294836,14.1420155 C25.3701035,15.1009255 24.8892121,15.1009255 23.4459545,15.1009255 L20.5591476,15.1009255 C20.0776727,15.1009255 20.0776727,15.1009255 20.0776727,14.6214705 L20.0776727,13.6625605 C20.0776727,13.1831055 20.0776727,13.1831055 20.5591476,13.1831055 L23.4459545,13.1831055 C24.4077372,13.1831055 25.3701035,12.7033592 26.3324697,12.7033592 L26.3324697,12.2239042 L25.3701035,12.2239042 C23.4459545,10.7852478 22.9644796,10.3055015 22.9644796,8.8668452 L22.9644796,7.90793517 L20.0776727,7.90793517 L20.0776727,7.90793517 Z" id="Fill-20" fill="#DB6831"></path>
                    <path d="M14.4791405,3.88325112 L16.403873,3.88325112 C16.8847643,3.88325112 16.8847643,3.88325112 16.8847643,4.36270613 C16.8847643,4.36270613 16.8847643,4.36270613 16.403873,4.36270613 L14.4791405,8.67867512 C14.4791405,8.67867512 14.4791405,9.15842142 13.9979574,9.15842142 L11.5926253,9.15842142 L11.5926253,8.67867512 L13.5170661,4.36270613 C13.9979574,3.88325112 13.9979574,3.88325112 14.4791405,3.88325112 Z M6.78166947,8.67867512 L6.78166947,8.67867512 C6.78166947,8.67867512 6.78166947,9.15842142 6.30048634,9.15842142 L4.37604563,9.15842142 C3.8948625,9.15842142 3.8948625,8.67867512 3.41397117,8.67867512 L1.48923866,4.36270613 C1.48923866,3.88325112 1.48923866,3.88325112 1.48923866,3.88325112 L3.8948625,3.88325112 C4.37604563,3.88325112 4.37604563,3.88325112 4.37604563,4.36270613 L6.78166947,8.67867512 Z M0.527164206,12.5151891 C0.045981077,12.5151891 0.045981077,12.0357341 0.045981077,12.0357341 L0.045981077,10.5970778 C0.045981077,10.5970778 0.045981077,10.1173315 0.527164206,10.1173315 L7.74374392,10.1173315 L7.74374392,2.9240498 L1.00805553,2.9240498 C0.527164206,2.9240498 0.527164206,2.44459479 0.527164206,2.44459479 L0.527164206,1.00593845 C0.527164206,1.00593845 0.527164206,0.526192154 1.00805553,0.526192154 L17.3662393,0.526192154 L17.3662393,2.9240498 L10.6302591,2.9240498 L10.6302591,10.1173315 L17.8471306,10.1173315 L18.3283137,10.5970778 L18.3283137,12.0357341 L17.8471306,12.5151891 L10.6302591,12.5151891 L10.6302591,14.9127555 C10.6302591,15.3922105 10.1493678,15.3922105 10.1493678,15.3922105 L8.22463525,15.3922105 C7.74374392,15.3922105 7.74374392,15.3922105 7.74374392,14.9127555 L7.74374392,12.5151891 L0.527164206,12.5151891 L0.527164206,12.5151891 Z" id="Fill-22" fill="#DB6831"></path>
                    <path d="M48.4852772,21.2930608 C48.4852772,20.8133145 48.9664603,20.3335682 49.4476435,20.3335682 L51.8529755,20.3335682 C52.3341586,20.3335682 53.2965249,20.8133145 53.777708,21.2930608 C53.777708,21.2930608 54.2585993,21.7722246 54.2585993,22.2519709 C54.2585993,23.2108809 53.777708,23.6906272 52.8153418,23.6906272 C53.777708,24.1700822 54.2585993,24.6495372 54.2585993,25.6087385 C54.2585993,26.5679399 53.2965249,27.5271412 51.8529755,27.5271412 L49.4476435,27.5271412 C48.9664603,27.5271412 48.4852772,27.0476862 48.4852772,27.0476862 L48.4852772,21.2930608 Z M51.3720842,23.2108809 C52.3341586,23.2108809 52.8153418,23.2108809 52.8153418,22.2519709 C52.8153418,21.7722246 52.3341586,21.7722246 51.3720842,21.7722246 L49.9288266,21.7722246 L49.9288266,23.2108809 L51.3720842,23.2108809 Z M51.8529755,26.5679399 C52.8153418,26.5679399 53.2965249,26.0884848 53.2965249,25.6087385 C53.2965249,24.6495372 52.8153418,24.6495372 51.8529755,24.6495372 L49.9288266,24.6495372 L49.9288266,26.5679399 L51.8529755,26.5679399 Z M55.2209656,26.5679399 L58.1077726,20.8133145 C58.1077726,20.3335682 58.5892475,20.3335682 58.5892475,20.3335682 C59.0707224,20.3335682 59.5521974,20.3335682 59.5521974,20.8133145 L61.956654,26.5679399 C62.4381289,26.5679399 62.4381289,27.0476862 62.4381289,27.0476862 C62.4381289,27.0476862 61.956654,27.5271412 61.4751791,27.5271412 C61.4751791,27.5271412 60.9937041,27.5271412 60.9937041,27.0476862 L60.5122292,25.6087385 L57.1454063,25.6087385 L56.6642232,27.0476862 C56.1833319,27.5271412 56.1833319,27.5271412 55.7021487,27.5271412 L55.2209656,27.0476862 L55.2209656,26.5679399 Z M60.0336723,24.6495372 L58.5892475,21.7722246 L57.6262976,24.6495372 L60.0336723,24.6495372 Z M63.4010788,20.8133145 C63.4010788,20.8133145 63.8796357,20.3335682 64.3611106,20.3335682 C64.8425856,20.3335682 64.8425856,20.3335682 64.8425856,20.8133145 L68.209992,25.1289922 L68.209992,20.8133145 C68.209992,20.8133145 68.691467,20.3335682 69.1729419,20.3335682 L69.6544168,20.8133145 L69.6544168,27.0476862 L69.1729419,27.5271412 C68.691467,27.5271412 68.691467,27.5271412 68.209992,27.0476862 L64.8425856,22.2519709 L64.8425856,27.0476862 L64.3611106,27.5271412 C63.8796357,27.5271412 63.4010788,27.0476862 63.4010788,27.0476862 L63.4010788,20.8133145 Z M71.5803166,20.8133145 C71.5803166,20.8133145 71.5803166,20.3335682 72.0588735,20.3335682 C72.5403484,20.3335682 72.5403484,20.8133145 72.5403484,20.8133145 L72.5403484,24.1700822 L75.9077549,20.8133145 C76.3892298,20.3335682 76.3892298,20.3335682 76.3892298,20.3335682 C76.8707047,20.3335682 76.8707047,20.8133145 76.8707047,20.8133145 C76.8707047,21.2930608 76.8707047,21.2930608 76.8707047,21.2930608 L74.4662481,23.6906272 L76.8707047,26.5679399 C77.3521797,26.5679399 77.3521797,26.5679399 77.3521797,27.0476862 C77.3521797,27.0476862 76.8707047,27.5271412 76.3892298,27.5271412 C76.3892298,27.5271412 76.3892298,27.5271412 75.9077549,27.0476862 L73.9847732,24.1700822 L72.5403484,25.6087385 L72.5403484,27.0476862 C72.5403484,27.0476862 72.5403484,27.5271412 72.0588735,27.5271412 C71.5803166,27.5271412 71.5803166,27.0476862 71.5803166,27.0476862 L71.5803166,20.8133145 L71.5803166,20.8133145 Z" id="Fill-24" fill="#DB6831"></path>
                    <path d="M19.3061455,20.3335682 L18.3440711,20.3335682 C17.862888,20.3335682 17.862888,20.3335682 17.862888,20.3335682 L17.862888,25.1289922 C17.3819966,24.6495372 14.0137147,20.8133145 13.5328234,20.3335682 L12.0895658,20.3335682 L12.0895658,27.0476862 C12.0895658,27.5271412 12.0895658,27.5271412 12.0895658,27.5271412 L13.5328234,27.5271412 C13.5328234,27.5271412 13.5328234,27.5271412 13.5328234,27.0476862 L13.5328234,22.2519709 C14.0137147,22.7314259 17.862888,27.0476862 17.862888,27.0476862 C17.862888,27.5271412 18.3440711,27.5271412 18.3440711,27.5271412 L19.3061455,27.5271412 C19.3061455,27.5271412 19.3061455,27.5271412 19.3061455,27.0476862 L19.3061455,20.3335682 Z M25.5606508,20.3335682 L22.6741356,20.3335682 C21.7117694,20.3335682 20.26822,21.2930608 20.26822,22.2519709 L20.26822,25.1289922 C20.26822,26.5679399 21.7117694,27.5271412 22.6741356,27.5271412 L25.5606508,27.5271412 C26.5230171,27.5271412 27.9662746,26.5679399 27.9662746,25.1289922 L27.9662746,23.6906272 L24.1173932,23.6906272 L24.1173932,24.6495372 L26.0418339,24.6495372 L26.0418339,26.0884848 L22.1929525,26.0884848 L22.1929525,21.7722246 L26.0418339,21.7722246 L26.0418339,22.7314259 L27.9662746,22.7314259 L27.9662746,22.2519709 C27.9662746,21.2930608 26.5230171,20.3335682 25.5606508,20.3335682 Z M45.7674242,20.3335682 L44.3244584,20.3335682 L44.3244584,25.1289922 C43.8429835,24.6495372 39.9943938,20.8133145 39.9943938,20.3335682 C39.9943938,20.3335682 39.9943938,20.3335682 39.5129189,20.3335682 L38.5505527,20.3335682 L38.5505527,27.0476862 C38.5505527,27.5271412 38.5505527,27.5271412 38.5505527,27.5271412 L39.5129189,27.5271412 C39.9943938,27.5271412 39.9943938,27.5271412 39.9943938,27.0476862 L39.9943938,22.2519709 C40.4752852,22.7314259 44.3244584,27.0476862 44.3244584,27.0476862 C44.3244584,27.5271412 44.3244584,27.5271412 44.3244584,27.5271412 L45.7674242,27.5271412 C45.7674242,27.5271412 45.7674242,27.5271412 45.7674242,27.0476862 L45.7674242,20.3335682 Z M34.701963,20.3335682 C34.2207799,20.3335682 34.2207799,20.3335682 34.2207799,20.3335682 L33.2584137,20.3335682 C32.7775223,20.3335682 32.7775223,20.3335682 32.7775223,20.3335682 L29.4095322,27.0476862 C29.4095322,27.0476862 29.4095322,27.5271412 29.8907154,27.5271412 L30.8530816,27.5271412 C30.8530816,27.5271412 30.8530816,27.5271412 30.8530816,27.0476862 L33.7398886,21.7722246 L36.1452206,27.0476862 C36.1452206,27.5271412 36.6266956,27.5271412 36.6266956,27.5271412 L37.5890618,27.5271412 C37.5890618,27.5271412 38.0699531,27.0476862 37.5890618,27.0476862 L34.701963,20.3335682 Z M6.79742683,23.6906272 C6.79742683,23.6906272 6.79742683,24.1700822 6.3162437,24.1700822 L2.9482536,24.1700822 L2.9482536,21.7722246 L6.3162437,21.7722246 C6.79742683,21.7722246 6.79742683,21.7722246 6.79742683,21.7722246 L6.79742683,23.6906272 Z M5.83506057,20.3335682 L1.50499602,20.3335682 L1.50499602,27.0476862 C1.50499602,27.5271412 1.50499602,27.5271412 1.50499602,27.5271412 L2.9482536,27.5271412 C2.9482536,27.5271412 2.9482536,27.5271412 2.9482536,27.0476862 L2.9482536,25.1289922 L5.83506057,25.1289922 C7.27831815,25.1289922 8.24039261,24.6495372 8.24039261,23.2108809 L8.24039261,22.7314259 C8.24039261,21.2930608 7.27831815,20.3335682 5.83506057,20.3335682 Z M10.6460164,20.3335682 L9.6842338,20.3335682 C9.20275886,20.3335682 9.20275886,20.3335682 9.20275886,20.3335682 L9.20275886,27.0476862 C9.20275886,27.5271412 9.20275886,27.5271412 9.6842338,27.5271412 L10.6460164,27.5271412 C10.6460164,27.5271412 10.6460164,27.5271412 10.6460164,27.0476862 L10.6460164,20.3335682 L10.6460164,20.3335682 Z" id="Fill-25" fill="#DB6831"></path>
                    <path d="M34.6523565,24.9941273 L32.7279158,24.9941273 C32.7279158,24.9941273 32.7279158,24.9941273 32.7279158,25.4738736 L32.7279158,26.9128212 C32.7279158,27.3922763 32.7279158,27.3922763 32.7279158,27.3922763 L34.6523565,27.3922763 C34.6523565,27.3922763 34.6523565,27.3922763 34.6523565,26.9128212 L34.6523565,25.4738736 C34.6523565,24.9941273 34.6523565,24.9941273 34.6523565,24.9941273" id="Fill-26" fill="#244B36"></path>
                </g>
            </g>
        </g>
    </g>
</svg>