<?xml version="1.0" encoding="UTF-8"?>
<svg width="80px" height="80px" viewBox="0 0 80 80" version="1.1" xmlns="http://www.w3.org/2000/svg" xmlns:xlink="http://www.w3.org/1999/xlink">
    <!-- Generator: Sketch 44.1 (41455) - http://www.bohemiancoding.com/sketch -->
    <title>北京</title>
    <desc>Created with Sketch.</desc>
    <defs></defs>
    <g id="Page-1" stroke="none" stroke-width="1" fill="none" fill-rule="evenodd">
        <g id="app" transform="translate(-4.000000, -1230.000000)">
            <g id="北京" transform="translate(4.000000, 1230.000000)">
                <rect id="Rectangle-Copy-10" x="0" y="0" width="80" height="80"></rect>
                <polyline id="Fill-123-Copy" fill="#D5292F" points="78.4127946 50.8826558 78.7786999 49.5426183 79.096141 48.2001575 79.3651178 46.8310414 79.5832071 45.4910038 79.6825589 44.8052341 79.7528321 44.0976555 79.8279518 43.4143091 79.9006482 42.7333858 79.9224571 42.0258072 79.9757679 41.3182286 79.9757679 40.61065 80 39.9030714 79.9757679 38.8756285 79.9515357 37.8772642 79.8764161 36.8764766 79.8061428 35.8756891 79.7067911 34.8749016 79.5832071 33.9007694 79.435391 32.9217908 79.0476767 31.0195675 78.824741 30.0672442 78.6066517 29.1415763 78.3376749 28.2134852 78.044466 27.3096262 77.7270249 26.4057673 77.3877749 25.5043315 77.0461017 24.6247047 76.6535409 23.7475011 76.2658266 22.8678742 75.8248016 22.0124796 75.3837766 21.1595081 74.9209426 20.3307688 74.4338765 19.4996062 73.8983462 18.6684437 73.3579693 17.8639365 72.80063 17.0594293 72.2142122 16.2791543 71.6035621 15.4988793 70.9929121 14.7404132 70.3337978 13.9601381 69.6528745 13.2283274 68.9671049 12.4722845 68.2328709 11.7404737 67.5034834 11.0328951 66.7474405 10.3228933 65.9889744 9.66620222 65.2329315 9.0070879 64.4526564 8.37220573 63.6699582 7.7615557 62.865451 7.17513782 62.0609438 6.6153753 61.2564367 6.0774217 60.4252741 5.56370025 59.5965348 5.07663416 58.7435633 4.58956806 57.8881687 4.15096626 57.0351972 3.73417338 56.1555704 3.31980372 55.2759435 2.95389835 54.3745078 2.58799297 53.4706488 2.24631974 52.5667898 1.9531108 51.6629309 1.66232507 50.7348398 1.39092506 49.8091719 1.14860362 48.8568486 0.928091113 47.9045254 0.734233961 46.9546253 0.562185739 45.9804931 0.416792876 45.0039377 0.293208942 44.0249591 0.174471436 43.0265948 0.0993517901 42.0282304 0.0508875023 41.0250197 0 38.9749803 0 37.9475374 0.0508875023 36.9249409 0.0993517901 35.9217302 0.174471436 34.947598 0.293208942 33.9710426 0.416792876 32.9969104 0.562185739 32.0179318 0.734233961 31.0656085 0.928091113 30.1157085 1.14860362 29.1876174 1.39092506 28.2595263 1.66232507 27.3605137 1.9531108 26.4566548 2.24631974 25.5527958 2.58799297 24.673169 2.95389835 23.7959653 3.31980372 22.9163385 3.73417338 22.0633671 4.15096626 21.2079724 4.58956806 20.3792331 5.07663416 19.5456473 5.56370025 18.7193312 6.0774217 17.914824 6.6153753 17.1103168 7.17513782 16.3276186 7.7615557 15.5473436 8.37220573 14.7670685 9.0070879 13.9843703 9.66620222 13.2525595 10.3228933 12.4940934 11.0328951 11.7647059 11.7404737 11.0328951 12.4722845 10.3495487 13.2283274 9.663779 13.9601381 9.0070879 14.7404132 8.37220573 15.4988793 7.19936996 17.0594293 6.63960744 17.8639365 6.0774217 18.6684437 5.56612346 19.4996062 5.07905737 20.3307688 4.61380021 21.1595081 4.15096626 22.0124796 3.73417338 22.8678742 3.34645908 23.7475011 2.95389835 24.6247047 2.58799297 25.5043315 2.27055189 26.4057673 1.95553402 27.3096262 1.66232507 28.2134852 1.39092506 29.1415763 1.15102684 30.0672442 0.928091113 31.0195675 0.734233961 31.9718907 0.562185739 32.9217908 0.416792876 33.9007694 0.293208942 34.8749016 0.19870358 35.8756891 0.0993517901 36.8764766 0.0508875023 37.8772642 0.0242321439 38.8756285 0 39.9030714 0.0242321439 40.9280911 0.0508875023 41.9531108 0.0993517901 42.9538983 0.19870358 43.9522627 0.293208942 44.9530502 0.416792876 45.9296056 0.562185739 46.906161 0.734233961 47.8584843 0.928091113 48.8108075 1.15102684 49.7607076 1.39092506 50.7130308 1.66232507 51.6411219 1.95553402 52.5425577 2.27055189 53.4706488 2.58799297 54.3502756 2.95389835 55.2517114 3.34645908 56.1313382 3.73417338 57.010965 4.15096626 57.8639365 4.61380021 58.7193312 5.07905737 59.5698794 5.56612346 60.401042 6.0774217 61.2322045 6.63960744 62.0609438 7.19936996 62.8678742 7.78578785 63.6481493 8.37220573 64.4526564 9.0070879 65.2086993 9.663779 65.9913976 10.3495487 66.7450173 11.0328951 67.5034834 11.7647059 68.2352941 12.4940934 68.9428727 13.2525595 69.6504513 13.9843703 70.3337978 14.7670685 70.96868 15.5473436 71.6035621 16.3276186 72.2142122 17.1103168 72.7982068 17.914824 73.3603926 18.7193312 73.8959229 19.5456473 74.4096444 20.3792331 74.8967105 21.2079724 75.3861998 22.0633671 75.8248016 22.9163385 76.2658266 23.7959653 76.6535409 24.673169 77.0461017 25.5527958 77.3877749 26.4566548 77.7270249 27.3605137 78.044466 28.2595263 78.315866 29.1876174 78.5824196 30.1157085 78.8271642 31.0656085 79.0452535 32.0179318 79.2415339 32.9969104 79.4135821 33.9710426 79.558975 34.947598 79.7067911 35.9217302 79.8037196 36.9249409 79.8764161 37.9475374 79.9248804 38.9749803 79.9733446 40.0024232 79.9733446 41.4418126 79.9491125 42.8569698 79.9006482 44.2478948 79.7794875 45.6388199 79.6340946 47.0006664 79.435391 48.3213182 79.1930696 49.6613558 78.8998607 50.9577755 78.5824196 52.2275398 78.1922821 53.494881 77.7779124 54.7404132 77.3150785 55.9617132 76.8255891 57.1539347 76.2658266 58.3510026 75.6794087 59.5238384 75.0445266 60.6700188 74.3854122 61.4502938 73.8959229 62.2087599 73.4088568 62.9429939 72.9217908 63.6239171 72.4080693 64.3048404 71.9210032 64.9397225 71.4072818 65.5503726 70.8959835 66.1367905 70.3822621 66.6723208 69.8443085 67.2102744 69.3330102 67.6973405 68.7974799 68.1625977 68.2595263 68.6036227 67.6997637 69.0131459 67.1618101 69.3838977 66.5996244 69.7473799 66.0374387 70.064821 65.4776761 70.3580299 64.9154904 70.6270067 64.3557279 70.8693282 63.76931 71.0922639 63.1828921 71.2618889 62.5964742 71.4315139 62.0124796 71.5550978 61.4018295 71.6496032 60.8154116 71.7271461 60.2071848 71.748955 59.5965348 71.7731871 58.9858848 71.748955 58.3510026 71.7271461 57.7403526 71.6496032 57.1078936 71.5550978 56.4730114 71.4315139 55.95929 71.3103532 55.4237596 71.1625371 54.9342703 71.0171442 54.4229721 70.8232871 53.9334828 70.6270067 53.4706488 70.4064942 53.0053917 70.1641728 52.5425577 69.895196 52.1039559 69.623796 51.6653541 69.3087781 51.2267523 68.991337 50.8099594 68.3079905 50.0296844 67.9154298 49.6395469 67.5277155 49.2469861 67.1109226 48.883504 66.6723208 48.5394075 66.2070637 48.2001575 65.7490761 47.8584843 65.2571636 47.53862 64.7458654 47.2236021 64.210335 46.9303932 63.6481493 46.6153753 63.0835403 46.3439753 62.5019689 46.0774217 61.8913188 45.8084449 61.2564367 45.5637002 60.5997456 45.3189556 59.9357848 45.0766342 59.2548616 44.8561216 58.5448598 44.6356091 56.7177561 44.000727 57.2993276 43.6614769 57.8639365 43.2931484 58.3994669 42.927243 58.8913794 42.5371055 59.3542134 42.1227358 59.790392 41.7083661 60.1829527 41.2697643 60.5464348 40.8045072 60.8881081 40.3416732 61.181317 39.8546071 61.474526 39.3408857 61.6974617 38.8295874 61.915551 38.2916339 62.085176 37.7536803 62.2087599 37.1939177 62.3323439 36.6074998 62.3783849 35.9241534 62.4026171 35.2916944 62.3783849 34.6301569 62.3323439 33.9710426 62.2087599 33.3385836 62.0391349 32.7012782 61.8428545 32.0930514 61.5981099 31.4581693 61.304901 30.8499424 60.9632277 30.2392924 60.570667 29.6286424 60.1344884 29.0446477 59.6425759 28.4558066 59.1094687 27.8693887 58.5206276 27.3096262 57.9099776 26.7474405 57.2290543 26.1610226 56.5481311 25.6012601 55.8381293 25.0899618 55.1038953 24.6004725 54.3526989 24.1352154 53.5700006 23.6990368 52.760647 23.306476 51.9343309 22.9163385 51.0813594 22.5746653 50.2017326 22.2329921 49.2978736 21.9397831 48.3697825 21.6732295 47.4174593 21.4284849 46.4433271 21.1837402 45.4401163 20.9874599 44.4175198 20.8178349 43.2446841 20.6482099 42.0742715 20.5003938 40.8529715 20.3768098 39.6316714 20.2798813 38.3885624 20.1829527 37.1187981 20.1102563 35.851457 20.061792 34.5356515 20.0375598 33.2149997 20.0133277 31.8701157 20.0375598 30.5082692 20.0375598 29.1173442 20.0836009 27.702187 20.1587205 26.2627976 20.2338402 24.8185618 20.3041134 23.3573635 20.4276973 23.3573635 33.0453747 24.5253529 32.8975586 25.6981886 32.7521657 26.8686012 32.6552372 28.0656691 32.5558854 29.2385049 32.483189 30.4331496 32.4347247 31.6302175 32.4080693 34.043739 32.4080693 35.2408069 32.4589568 36.462107 32.5074211 37.683407 32.6043497 38.8998607 32.7012782 40.1211607 32.8248622 41.3642697 32.9726783 42.6098019 33.1180711 43.6130127 33.2901193 44.5653359 33.4839765 45.4401163 33.7020658 46.2737021 33.9225783 47.029745 34.1915551 47.7349003 34.4605319 48.3940147 34.7537408 48.9804325 35.0711819 49.2494093 35.2141516 49.4917308 35.388623 49.7364754 35.5824802 49.9545647 35.7521052 50.1775005 35.9483855 50.3471255 36.1422427 50.5409826 36.3385231 50.6887987 36.5323802 50.8341916 36.7528927 50.9820076 36.9734052 51.1055916 37.1939177 51.2000969 37.4362392 51.2752166 37.6567517 51.3454898 37.9014963 51.3988005 38.1438178 51.4448416 38.4152178 51.4448416 38.8513964 51.3988005 39.0719089 51.3454898 39.3166535 51.1516326 39.8546071 50.8826558 40.4628339 50.7130308 40.7075786 50.5191737 40.9523233 50.3010844 41.1704126 50.0296844 41.3424608 49.7607076 41.5120858 49.4674986 41.6599019 49.1500576 41.7810626 48.8108075 41.8779912 48.4449022 41.9531108 48.0281093 42.0258072 47.6113164 42.0500394 46.6856485 42.0500394 46.1961592 42.0258072 45.684861 41.9531108 45.1226752 41.8779912 43.6614769 41.7083661 42.2220876 41.5629733 40.7826982 41.4393893 39.3626946 41.3424608 37.976616 41.2697643 36.5856909 41.2188768 35.1923426 41.1946447 33.8256497 41.1704126 32.4807657 41.1946447 31.1431514 41.2188768 29.7982674 41.2697643 28.482462 41.3424608 27.1908887 41.4393893 25.894469 41.5629733 24.6247047 41.7083661 23.3573635 41.8779912 23.3573635 54.7404132 25.1360029 54.5441328 26.8686012 54.3502756 28.5769673 54.2024596 30.2853335 54.0812988 31.9234264 54.0061792 33.5566729 53.9334828 35.1414551 53.9092506 36.7020052 53.9092506 38.2407464 53.9601381 39.7552553 54.0061792 41.2188768 54.105531 42.6606894 54.2509239 44.0758466 54.3963167 45.4691949 54.5950203 46.8068092 54.8106864 48.1274611 55.0578542 49.1742897 55.2517114 50.1532683 55.496456 51.0813594 55.7387775 51.9343309 56.0101775 52.7388381 56.3251954 53.4706488 56.6426365 53.812322 56.8146847 54.1297631 56.9843097 54.4472042 57.1563579 54.7404132 57.3502151 55.00939 57.5464954 55.2759435 57.7403526 55.5206882 57.9608651 55.7387775 58.1571455 55.9617132 58.3752347 56.1555704 58.5957473 56.3251954 58.8162598 56.4948204 59.0585812 56.6426365 59.3033259 56.7662204 59.5456473 56.8898043 59.790392 56.9600775 60.0593688 57.0594293 60.3041134 57.1054704 60.570667 57.1539347 60.842067 57.2048222 61.1352759 57.2048222 61.3533652 57.2290543 61.5956867 57.2048222 61.8428545 57.2048222 62.0609438 57.1539347 62.3032653 57.1054704 62.5237778 57.0351972 62.7709457 56.9600775 62.9866117 56.8655722 63.2337796 56.7419882 63.4518689 56.6184043 63.6941903 56.4730114 63.9413582 56.1555704 64.4284243 55.7678561 64.9154904 55.5206882 65.2086993 54.9342703 65.7466529 54.6168292 65.9913976 54.2993881 66.233719 53.9601381 66.4784637 53.6184649 66.6989762 53.2501363 66.9170655 52.8842309 67.1351548 52.4965166 67.3314351 52.0797238 67.5277155 51.6629309 67.7239959 51.2243291 67.8936209 50.7639183 68.0632459 50.3010844 68.211062 49.8091719 68.3564548 49.3196826 68.5042709 48.8108075 68.6278548 48.2995093 68.7465924 47.7349003 68.8435209 46.6129521 69.0398013 45.4401163 69.2118495 44.1945841 69.3330102 42.8787787 69.432362 41.5120858 69.4808263 39.3166535 69.4808263 38.5581874 69.454171 37.8021445 69.4081299 37.0485249 69.3572424 36.3142909 69.284546 35.5824802 69.1876174 34.8773248 69.0882656 34.1430908 68.9671049 33.4379354 68.821712 32.7279336 68.6496638 32.0470104 68.4800388 31.3588175 68.2837584 30.6778942 68.0899013 29.996971 67.8427334 29.3330102 67.6004119 28.6763191 67.3556673 28.0172048 67.0648816 27.3605137 66.7716726 26.7256316 66.4784637 26.0883262 66.1367905 25.4825226 65.7951172 24.2612225 65.0633065 23.6505725 64.673169 23.0641546 64.2587993 22.4753135 63.8177743 21.893742 63.3791725 21.3073242 62.9139153 20.7451384 62.4268492 20.1853759 61.9397831 19.6449991 61.4260617 19.0876598 60.8881081 18.5715151 60.3525777 18.0602169 59.790392 17.5489186 59.2306294 17.0618525 58.6684437 16.5990186 58.1086812 15.7169686 56.9358454 15.3001757 56.3494275 14.9124614 55.7387775 14.5199006 55.1547828 14.1564185 54.5199006 13.8147453 53.9092506 13.4973042 53.2767917 13.1798631 52.6419095 12.8866541 52.0070273 12.5934452 51.347913 12.3244684 50.7130308 12.082147 50.0296844 11.8592112 49.3705701 11.6435452 48.6872236 11.449688 48.0038771 11.2727934 47.3229539 11.1031684 46.6153753 10.9601987 45.9053735 10.839038 45.1977949 10.715454 44.4659841 10.6403344 43.7341734 10.545829 42.9999394 10.4925183 42.2705519 10.4464773 41.5120858 10.4222451 40.7560429 10.4222451 39.2439571 10.4464773 38.485491 10.4925183 37.7318713 10.545829 36.9976374 10.6403344 36.2658266 10.715454 35.5340159 10.839038 34.8264373 10.9601987 34.0946265 11.1031684 33.4088568 11.2727934 32.7012782 11.449688 32.020355 11.6435452 31.3103532 11.8592112 30.6536621 12.082147 29.9678924 12.3244684 29.3112013 12.5934452 28.6496638 12.8866541 27.9929727 13.1798631 27.3580905 13.4973042 26.7256316 13.8147453 26.0907494 14.1564185 25.453444 14.5199006 24.8452172 14.9124614 24.2345672 15.3001757 23.6481493 15.7169686 23.0374992 16.1579936 22.4535046 16.5990186 21.8670867 17.0618525 21.304901 17.5489186 20.7451384 18.0602169 20.1829527 18.5715151 19.6231902 19.0876598 19.0852366 19.6449991 18.5497062 20.209608 18.0359847 20.7669474 17.5464954 21.3315563 17.0594293 21.9179742 16.5965954 22.4995456 16.1555704 23.0859635 15.7193918 23.6723814 15.3025989 24.2830314 14.9124614 24.8936815 14.5199006 25.5043315 14.1564185 26.1392137 13.812322 26.7740958 13.473072 27.408978 13.1556309 28.041437 12.862422 28.7005513 12.5934452 29.3572424 12.3244684 30.0212031 12.082147 30.7021264 11.8374023 31.3588175 11.6411219 32.0688193 11.4472648 32.7521657 11.2534076 33.4621676 11.1031684 34.167323 10.9601987 34.8773248 10.8366148 35.5824802 10.715454 36.3142909 10.6161023 37.072757 10.5434058 37.8021445 10.4949415 38.5581874 10.4464773 39.3166535 10.4222451 40.0726964 10.398013 40.8311625 10.4222451 41.5872054 10.4464773 42.3456715 10.4949415 43.0726359 10.5434058 43.8068698 10.6161023 44.5411038 10.715454 45.2462592 10.8366148 45.956261 10.9601987 46.6614164 11.1031684 47.3714182 11.2534076 48.0523414 11.4472648 48.7381111 11.6411219 49.4190343 11.8374023 50.0781487 12.082147 50.7639183 12.3244684 51.3988005 12.5934452 52.0554916 12.862422 52.6903738 13.1556309 53.325256 13.473072 53.9601381 13.812322 54.5683649 14.1564185 55.2032471 14.5199006 55.789665 14.9124614 56.400315 15.3025989 56.9843097 15.7193918 57.5707276 16.1555704 58.1329133 16.5965954 58.7144848 17.0594293 59.2790937 17.5464954 59.8194705 18.0359847 60.3768098 18.5497062 60.9171866 19.0852366 61.4284849 19.6231902 61.9397831 20.1587205 62.4486581 20.7209063 62.9429939 21.2806688 63.4058278 21.8428545 63.8420064 22.4292724 64.2806082 23.0132671 64.6974011 23.6021082 65.0851154 24.210335 65.4558672 24.8185618 65.8193494 25.4292118 66.1828315 26.064094 66.5002726 26.674744 66.8177137 27.3362816 67.1109226 27.9687405 67.4041316 28.6278548 67.6755316 29.2869692 67.9154298 29.9460835 68.1383655 30.6294299 68.3564548 31.3103532 68.550312 31.9936996 68.7247834 32.6794693 68.8968316 33.3870479 69.0422245 34.0946265 69.160962 34.8022051 69.3596656 36.2658266 69.4299388 36.9976374 69.5074817 37.7318713 69.5535227 38.485491 69.5777549 39.2439571 69.5777549 40 69.4299388 43.2204519 70.064821 43.6105894 70.6997032 43.978918 71.3321621 44.3932877 71.9428121 44.8052341 72.5316532 45.2462592 73.1180711 45.6872842 73.704489 46.1234628 74.2618283 46.6153753 74.8264373 47.1024414 75.3837766 47.5895075 75.8999212 48.1032289 76.4354516 48.6145272 76.9467499 49.1742897 77.433816 49.7122433 77.9257285 50.2986612 78.4127946 50.8826558"></polyline>
            </g>
        </g>
    </g>
</svg>