<?xml version="1.0" encoding="UTF-8"?>
<svg width="10px" height="10px" viewBox="0 0 10 10" version="1.1" xmlns="http://www.w3.org/2000/svg" xmlns:xlink="http://www.w3.org/1999/xlink">
    <!-- Generator: Sketch 44.1 (41455) - http://www.bohemiancoding.com/sketch -->
    <title>正确-3 copy 3</title>
    <desc>Created with Sketch.</desc>
    <defs></defs>
    <g id="Page-1" stroke="none" stroke-width="1" fill="none" fill-rule="evenodd">
        <g id="借款信息" transform="translate(-15.000000, -296.000000)" fill="#73ADFF">
            <path d="M20,306 C17.2449951,306 15,303.755005 15,301 C15,298.244995 17.2449951,296 20,296 C22.7550049,296 25,298.244995 25,301 C25,303.755005 22.7550049,306 20,306 Z M20,296.715002 C17.6400024,296.715002 15.7199951,298.634998 15.7199951,300.994995 C15.7199951,303.355005 17.6400024,305.280005 20,305.280005 C22.3599976,305.280005 24.2849976,303.359998 24.2849976,300.994995 C24.2849976,298.640002 22.3599976,296.715002 20,296.715002 Z M22.4,299.675 C22.2599976,299.534998 22.0349976,299.540002 21.8949951,299.680005 L19.2900024,302.309998 L18.1349976,301.125 C17.9949951,300.984998 17.7699951,300.980005 17.6300049,301.119995 C17.4900024,301.255005 17.4849976,301.484998 17.625,301.625 L19.0300049,303.069995 L19.0349976,303.069995 L19.0349976,303.075 C19.0599976,303.094995 19.0849976,303.109998 19.1099976,303.125 C19.125,303.134998 19.1349976,303.144995 19.15,303.15 C19.1949951,303.169995 19.2400024,303.175 19.2849976,303.175 C19.3300049,303.175 19.375,303.165002 19.4199951,303.15 C19.4349976,303.144995 19.4449951,303.134998 19.4599976,303.125 C19.4849976,303.109998 19.5150024,303.094995 19.5349976,303.075 L19.5349976,303.069995 L19.5400024,303.069995 L22.4,300.180005 C22.5400024,300.040002 22.5400024,299.815002 22.4,299.675 L22.4,299.675 Z" id="正确-3-copy-3"></path>
        </g>
    </g>
</svg>