<?xml version="1.0" encoding="UTF-8"?>
<svg width="19px" height="20px" viewBox="0 0 19 20" version="1.1" xmlns="http://www.w3.org/2000/svg" xmlns:xlink="http://www.w3.org/1999/xlink">
    <!-- Generator: Sketch 44.1 (41455) - http://www.bohemiancoding.com/sketch -->
    <title>Group 5</title>
    <desc>Created with Sketch.</desc>
    <defs></defs>
    <g id="Page-1" stroke="none" stroke-width="1" fill="none" fill-rule="evenodd">
        <g id="编辑个人信息" transform="translate(-15.000000, -386.000000)" fill="#5E95FF">
            <g id="Group-5" transform="translate(15.000000, 387.000000)">
                <path d="M10.1877446,0.651547561 L18.0890805,8.13702366 L18.0890805,8.13702366 C18.2895468,8.3269391 18.2981,8.64340603 18.1081845,8.84387232 C18.0137598,8.94354287 17.8825044,9 17.7452082,9 L1.2547918,9 L1.2547918,9 C0.978649421,9 0.754791796,8.77614237 0.754791796,8.5 C0.754791796,8.36270379 0.811248923,8.23144839 0.910919472,8.13702366 L8.81225535,0.651547561 L8.81225535,0.651547561 C9.19795157,0.28615114 9.80204843,0.28615114 10.1877446,0.651547561 Z" id="Triangle" stroke="#5E95FF" fill-opacity="0.2"></path>
                <rect id="Rectangle-16" x="2" y="9" width="1" height="10"></rect>
                <rect id="Rectangle-16-Copy" x="16" y="9" width="1" height="10"></rect>
                <rect id="Rectangle-16-Copy-2" x="11" y="9" width="1" height="10"></rect>
                <rect id="Rectangle-16-Copy-3" x="7" y="9" width="1" height="10"></rect>
                <rect id="Rectangle-15" x="0" y="18" width="19" height="1" rx="0.5"></rect>
            </g>
        </g>
    </g>
</svg>