<?xml version="1.0" encoding="UTF-8"?>
<svg width="30px" height="30px" viewBox="0 0 30 30" version="1.1" xmlns="http://www.w3.org/2000/svg" xmlns:xlink="http://www.w3.org/1999/xlink">
    <!-- Generator: Sketch 44.1 (41455) - http://www.bohemiancoding.com/sketch -->
    <title>tips</title>
    <desc>Created with Sketch.</desc>
    <defs></defs>
    <g id="充值提现购买" stroke="none" stroke-width="1" fill="none" fill-rule="evenodd">
        <g id="债权购买" transform="translate(-30.000000, -158.000000)" fill="#5E95FF">
            <path d="M36,162 C35.1568297,161.914203 34.6002977,161.914203 34,162 C33.9141742,162.600452 33.9141742,163.156795 34,164 L36,165 C35.8432427,165.085797 36.3993564,165.085797 37,165 C37.0857695,164.399548 37.0857695,163.843334 37,164 L36,162 M55,162 L53,164 C52.9142273,163.843297 52.9142273,164.399529 53,165 C53.6001191,165.0858 54.1566398,165.0858 55,165 L56,164 C56.0858451,163.156736 56.0858451,162.600536 56,162 C55.3994062,161.914232 54.8432395,161.914232 55,162 M33,170 L31,170 C30.4478415,170 30,170.447732 30,171 C30,171.552193 30.4477317,171.999924 31,172 L33,172 C33.5523001,171.999924 33.9999951,171.552193 34,171 C33.9999951,170.447732 33.5523001,170 33,170 M59,170 L57,170 C56.4478782,170 56,170.447732 56,171 C56,171.552193 56.4478415,171.999924 57,172 L59,172 C59.5522634,171.999924 60.0003247,171.552193 60,171 C60.0003247,170.447732 59.5522634,170 59,170 M43.999873,159 L43.999873,161 C43.999873,161.5523 44.4476047,161.999812 44.999873,162 C45.5519192,161.999812 45.9999805,161.5523 45.999873,161 L45.999873,159 C45.9999805,158.447732 45.5519192,158 44.999873,158 C44.4476047,158 43.999873,158.447732 43.999873,159 M37.9999536,172.999954 C37.9999536,169.133929 41.1337824,165.999954 44.9999536,165.999954 C48.865888,165.999954 51.9998633,169.133929 51.9999536,172.999954 C51.9998633,176.865888 48.865888,179.999973 44.9999536,179.999954 C41.1337824,179.999973 37.9999536,176.865851 37.9999536,172.999954 M36.0000659,173.000066 C36.0000659,177.970825 40.0291383,182.000227 45.0000659,182.000066 C49.9705321,182.000227 53.9997876,177.970825 54.0000659,173.000066 C53.9997876,168.029138 49.9705321,164.000066 45.0000659,164.000066 C40.0291383,164.000066 36.0000659,168.029138 36.0000659,173.000066 M42.9999292,187.000076 C42.9999292,187.551939 43.4476243,188.000146 43.9999292,188.000076 L45.9999292,188.000076 C46.5521926,188.000146 46.9999243,187.551975 46.9999292,187.000076 C46.9999243,186.447478 46.5521926,186.000076 45.9999292,186.000076 L43.9999292,186.000076 C43.4476243,186.000076 42.9999292,186.447478 42.9999292,187.000076 M41.0000049,183.999841 C41.0000049,184.551924 41.4476999,185.000095 42.0000049,184.999841 L48.0000049,184.999841 C48.5520803,185.000095 48.999812,184.551924 49.0000049,183.999841 C48.999812,183.447427 48.5520803,182.999841 48.0000049,182.999841 L42.0000049,182.999841 C41.4475535,182.999878 41.0000049,183.447427 41.0000049,183.999841" id="tips"></path>
        </g>
    </g>
</svg>