<?xml version="1.0" encoding="UTF-8"?>
<svg width="50px" height="102px" viewBox="0 0 50 102" version="1.1" xmlns="http://www.w3.org/2000/svg" xmlns:xlink="http://www.w3.org/1999/xlink">
    <!-- Generator: Sketch 44.1 (41455) - http://www.bohemiancoding.com/sketch -->
    <title>Close</title>
    <desc>Created with Sketch.</desc>
    <defs></defs>
    <g id="充值提现购买" stroke="none" stroke-width="1" fill="none" fill-rule="evenodd">
        <g id="提现弹窗" transform="translate(-620.000000, -295.000000)">
            <g id="弹窗" transform="translate(80.000000, 295.000000)">
                <g id="Close" transform="translate(540.000000, 0.000000)">
                    <g id="Group-6">
                        <circle id="Oval-3" fill="#FFFFFF" cx="25" cy="25" r="25"></circle>
                        <path d="M23.8535156,24.5449219 L13.8535156,24.5449219 L13.8535156,24.5449219 C13.3012309,24.5449219 12.8535156,24.9926371 12.8535156,25.5449219 C12.8535156,26.0972066 13.3012309,26.5449219 13.8535156,26.5449219 L23.8535156,26.5449219 L23.8535156,36.5449219 C23.8535156,37.0972066 24.3012309,37.5449219 24.8535156,37.5449219 C25.4058004,37.5449219 25.8535156,37.0972066 25.8535156,36.5449219 L25.8535156,26.5449219 L35.8535156,26.5449219 C36.4058004,26.5449219 36.8535156,26.0972066 36.8535156,25.5449219 C36.8535156,24.9926371 36.4058004,24.5449219 35.8535156,24.5449219 L25.8535156,24.5449219 L25.8535156,14.5449219 L25.8535156,14.5449219 C25.8535156,13.9926371 25.4058004,13.5449219 24.8535156,13.5449219 L24.8535156,13.5449219 L24.8535156,13.5449219 C24.3012309,13.5449219 23.8535156,13.9926371 23.8535156,14.5449219 L23.8535156,24.5449219 Z" id="Combined-Shape" fill="#666666" transform="translate(24.853516, 25.544922) rotate(-45.000000) translate(-24.853516, -25.544922) "></path>
                    </g>
                    <path d="M25,28.5 L25,100.5" id="Line" stroke="#FFFFFF" stroke-width="2" stroke-linecap="square"></path>
                </g>
            </g>
        </g>
    </g>
</svg>