<?xml version="1.0" encoding="UTF-8"?>
<svg width="12px" height="12px" viewBox="0 0 12 12" version="1.1" xmlns="http://www.w3.org/2000/svg" xmlns:xlink="http://www.w3.org/1999/xlink">
    <!-- Generator: Sketch 44.1 (41455) - http://www.bohemiancoding.com/sketch -->
    <title>解释 copy</title>
    <desc>Created with Sketch.</desc>
    <defs></defs>
    <g id="敲定页" stroke="none" stroke-width="1" fill="none" fill-rule="evenodd">
        <g id="红利计划退出中" transform="translate(-103.000000, -520.000000)">
            <g id="解释-copy" transform="translate(102.000000, 519.000000)">
                <rect id="Rectangle-14" x="0" y="0" width="14" height="14"></rect>
                <path d="M12.9904722,7.00232782 C12.9904722,10.3062256 10.3074346,12.9892632 7.00353684,12.9892632 C3.6996391,12.9892632 1.0166015,10.3062256 1.0166015,7.00232782 C1.0166015,3.69843008 3.6996391,1.01539248 7.00353684,1.01539248 C10.3074346,1.01539248 12.9904722,3.69103158 12.9904722,7.00232782 Z M7.01831579,1.91712481 C4.2983218,1.91712481 1.91095338,4.30451128 1.91095338,7.01710677 C1.91095338,9.84057143 4.19485113,12.1244872 7.01831579,12.1244872 C9.84178045,12.1244872 12.1256962,9.84057143 12.1256962,7.01710677 C12.1256962,4.31929023 9.76786767,1.91712481 7.01831579,1.91712481 L7.01831579,1.91712481 Z" id="Fill-1" fill="#72B0FF"></path>
                <path d="M8.48179248,4.36364511 C8.14178647,4.0162406 7.63919398,3.80190075 7.08484812,3.80190075 C6.46396992,3.80190075 5.94658045,4.06059549 5.57701654,4.49667368 C5.24440902,4.87363609 5.07440602,5.39842406 5.07440602,6.00450526 L5.84310977,6.01188571 C5.84310977,5.59058647 5.9613594,5.2505985 6.15353985,5.00668271 C6.36049925,4.71841203 6.64875188,4.57058647 7.08484812,4.57058647 C7.44701353,4.57058647 7.73526617,4.66667669 7.93484511,4.87363609 C8.12700752,5.06581654 8.23049624,5.33189173 8.23049624,5.6792782 C8.23049624,5.92319398 8.14178647,6.14493233 7.9718015,6.36667068 C7.92004812,6.43320301 7.83135639,6.50711579 7.67615038,6.67710075 C7.21049624,7.1057985 6.92222556,7.42362707 6.80397594,7.6823218 C6.70048722,7.89666165 6.64137143,8.1184 6.64137143,8.44362707 L6.64137143,8.64318797 L7.3878797,8.64318797 L7.3878797,8.44362707 C7.40265865,8.19971128 7.43223459,8.00753083 7.54310376,7.81536842 C7.64657444,7.66754286 7.77222256,7.52709774 7.96440301,7.36449323 C8.34874586,7.02450526 8.57048421,6.81754586 8.65917594,6.71405714 C8.91049023,6.38884812 8.99178346,6.0562406 8.99178346,5.66449925 C8.99178346,5.13233083 8.8070015,4.65929624 8.48179248,4.36364511 Z M7.04049323,9.24188872 C6.87788872,9.24188872 6.74484211,9.28622556 6.63397293,9.40449323 C6.52310376,9.50796391 6.47136842,9.64101053 6.47136842,9.80361504 C6.47136842,9.96621955 6.51570526,10.0992662 6.63397293,10.2101353 C6.74484211,10.3136241 6.87788872,10.3727398 7.04049323,10.3727398 C7.20309774,10.3727398 7.33614436,10.3136241 7.44701353,10.2101353 C7.55788271,10.1066647 7.61701654,9.97361805 7.61701654,9.80361504 C7.61701654,9.64101053 7.55788271,9.50796391 7.45441203,9.40449323 C7.33614436,9.28622556 7.19571729,9.24188872 7.04049323,9.24188872 L7.04049323,9.24188872 Z" id="Fill-2" fill="#72B0FF"></path>
            </g>
        </g>
    </g>
</svg>