<?xml version="1.0" encoding="UTF-8"?>
<svg width="16px" height="22px" viewBox="0 0 16 22" version="1.1" xmlns="http://www.w3.org/2000/svg" xmlns:xlink="http://www.w3.org/1999/xlink">
    <!-- Generator: Sketch 44.1 (41455) - http://www.bohemiancoding.com/sketch -->
    <title>手机</title>
    <desc>Created with Sketch.</desc>
    <defs></defs>
    <g id="Page-1" stroke="none" stroke-width="1" fill="none" fill-rule="evenodd">
        <g id="编辑个人信息" transform="translate(-17.000000, -487.000000)">
            <g id="手机" transform="translate(18.000000, 488.000000)">
                <path d="M1,0 L12.6363636,0 C13.1886484,-1.01453063e-16 13.6363636,0.44771525 13.6363636,1 L13.6363636,19 C13.6363636,19.5522847 13.1886484,20 12.6363636,20 L1,20 C0.44771525,20 6.76353751e-17,19.5522847 0,19 L0,1 L0,1 C-6.76353751e-17,0.44771525 0.44771525,1.01453063e-16 1,0 L1,0 Z M3.0979021,3.15789474 C2.54561735,3.15789474 2.0979021,3.60560999 2.0979021,4.15789474 L2.0979021,14.7894737 C2.0979021,15.3417584 2.54561735,15.7894737 3.0979021,15.7894737 L3.0979021,15.7894737 L10.5384615,15.7894737 C11.0907463,15.7894737 11.5384615,15.3417584 11.5384615,14.7894737 L11.5384615,4.15789474 C11.5384615,3.60560999 11.0907463,3.15789474 10.5384615,3.15789474 L3.0979021,3.15789474 Z" id="Combined-Shape" stroke="#5E95FF"></path>
                <rect id="Rectangle-13" fill="#5E95FF" x="5.24475524" y="1.57894737" width="3.14685315" height="1" rx="0.5"></rect>
                <ellipse id="Oval-7" fill="#5E95FF" opacity="0.5" cx="6.81818182" cy="17.8947368" rx="1.04895105" ry="1.05263158"></ellipse>
            </g>
        </g>
    </g>
</svg>