<?xml version="1.0" encoding="UTF-8"?>
<svg width="20px" height="9px" viewBox="0 0 20 9" version="1.1" xmlns="http://www.w3.org/2000/svg" xmlns:xlink="http://www.w3.org/1999/xlink">
    <!-- Generator: Sketch 44.1 (41455) - http://www.bohemiancoding.com/sketch -->
    <title>眼睛</title>
    <desc>Created with Sketch.</desc>
    <defs></defs>
    <g id="Page-1" stroke="none" stroke-width="1" fill="none" fill-rule="evenodd" opacity="0.5">
        <g id="注册2-copy" transform="translate(-347.000000, -236.000000)" fill="#999999">
            <path d="M366.875229,237.114034 C367.089831,236.802776 367.018268,236.3877 366.73216,236.145589 C366.410257,235.903478 365.981052,235.972652 365.730654,236.283938 C365.694887,236.318526 361.724742,240.849493 357.00346,240.849493 C352.425247,240.849493 348.276238,236.283938 348.240442,236.249351 C347.990073,235.972652 347.52513,235.938093 347.238964,236.180176 C346.952828,236.422288 346.917061,236.871923 347.16743,237.148621 C347.238964,237.252383 348.097374,238.186241 349.456523,239.223889 L347.632373,241.057017 C347.346237,241.333743 347.382004,241.783351 347.668169,242.02549 C347.739703,242.163812 347.918539,242.233014 348.097374,242.233014 C348.276209,242.233014 348.455045,242.163812 348.598113,242.02549 L350.565302,240.054012 C351.495245,240.676584 352.604025,241.264569 353.820134,241.679617 L353.069025,244.135317 C352.961724,244.515777 353.176326,244.896238 353.569735,245 L353.784338,245 C354.106242,245 354.392407,244.792476 354.463912,244.48119 L355.215021,242.02549 C355.787294,242.129224 356.395363,242.198427 357.003403,242.198427 C357.611443,242.198427 358.219483,242.129224 358.791756,242.02549 L359.542893,244.446603 C359.614428,244.757889 359.936331,244.965413 360.222468,244.965413 C360.294002,244.965413 360.365536,244.965413 360.401303,244.930825 C360.794741,244.827036 361.009343,244.446603 360.902071,244.066142 L360.150962,241.645002 C361.367043,241.229954 362.475822,240.641969 363.405766,240.019397 L365.337216,241.956315 C365.480256,242.094665 365.659091,242.163839 365.837926,242.163839 C366.016762,242.163839 366.195597,242.094665 366.338665,241.956315 C366.624831,241.679617 366.624831,241.264569 366.374432,240.98787 L364.550283,239.154714 C366.01679,238.117094 366.875229,237.114034 366.875229,237.114034" id="眼睛"></path>
        </g>
    </g>
</svg>