<?xml version="1.0" encoding="UTF-8"?>
<svg width="20px" height="12px" viewBox="0 0 20 12" version="1.1" xmlns="http://www.w3.org/2000/svg" xmlns:xlink="http://www.w3.org/1999/xlink">
    <!-- Generator: Sketch 44.1 (41455) - http://www.bohemiancoding.com/sketch -->
    <title>眼睛-2</title>
    <desc>Created with Sketch.</desc>
    <defs></defs>
    <g id="Page-1" stroke="none" stroke-width="1" fill="none" fill-rule="evenodd" opacity="0.5">
        <g id="注册2-copy" transform="translate(-335.000000, -222.000000)" fill="#999999">
            <g id="眼睛-2" transform="translate(335.000000, 222.000000)">
                <path d="M9.78235294,10.9888203 C13.3724316,10.9888203 18.2420439,7.24658986 18.5804825,6.21785253 C18.4484142,5.09082028 13.8653294,1.01499539 9.78235294,1.01499539 C5.89842776,1.01499539 0.981946327,4.26146544 0.981485497,6.24268203 C1.08365411,7.21874654 5.80162646,10.9888203 9.78235294,10.9888203 Z M9.78235294,11.9867005 C5.70395771,11.9867005 0.00412035782,8.07149309 0.00412035782,6.25125346 C0.00412035782,3.36682949 5.73803199,0.0171152074 9.78235294,0.0171152074 C14.2080239,0.0171152074 19.5607211,4.4041659 19.5607211,6.25125346 C19.5607211,7.78824885 13.7102738,11.9867005 9.78235294,11.9867005 L9.78235294,11.9867005 Z" id="Fill-1"></path>
                <path d="M9.78235294,8.49536406 C11.1298184,8.49536406 12.2269992,7.37623963 12.2269992,6.00182488 C12.2269992,4.62749309 11.1298184,3.50842396 9.78235294,3.50842396 C8.43494172,3.50842396 7.33781513,4.62749309 7.33781513,6.00182488 C7.33781513,7.37623963 8.43494172,8.49536406 9.78235294,8.49536406 Z M9.78235294,9.49324424 C7.89173218,9.49324424 6.35947411,7.93025806 6.35947411,6.00182488 C6.35947411,4.073447 7.89173218,2.51054378 9.78235294,2.51054378 C11.6730821,2.51054378 13.205286,4.073447 13.205286,6.00182488 C13.205286,7.93025806 11.6730821,9.49324424 9.78235294,9.49324424 L9.78235294,9.49324424 Z" id="Fill-2"></path>
            </g>
        </g>
    </g>
</svg>