<?xml version="1.0" encoding="UTF-8"?>
<svg width="15px" height="21px" viewBox="0 0 15 21" version="1.1" xmlns="http://www.w3.org/2000/svg" xmlns:xlink="http://www.w3.org/1999/xlink">
    <!-- Generator: Sketch 44.1 (41455) - http://www.bohemiancoding.com/sketch -->
    <title>解锁</title>
    <desc>Created with Sketch.</desc>
    <defs>
        <path d="M2,7.8338945 L13,7.8338945 L13,7.8338945 C14.1045695,7.8338945 15,8.729325 15,9.8338945 L15,17.5005612 L15,17.5005612 C15,18.6051307 14.1045695,19.5005612 13,19.5005612 L2,19.5005612 L2,19.5005612 C0.8954305,19.5005612 1.3527075e-16,18.6051307 0,17.5005612 L0,9.8338945 L0,9.8338945 C-1.3527075e-16,8.729325 0.8954305,7.8338945 2,7.8338945 Z" id="path-1"></path>
    </defs>
    <g id="Page-1" stroke="none" stroke-width="1" fill="none" fill-rule="evenodd">
        <g id="编辑个人信息" transform="translate(-18.000000, -244.000000)">
            <g id="解锁" transform="translate(18.000000, 245.000000)">
                <path d="M2.22222222,5.61167228 C2.22222222,2.54342367 4.58516382,0.0561167228 7.77777778,0.0561167228 C10.4148362,0.0561167228 12.7777778,2.54342367 12.7777778,5.61167228 L10.5555556,5.61167228 C10.5555556,3.64635777 9.18753674,2.27833895 7.77777778,2.27833895 C5.81246326,2.27833895 4.44444444,3.64635777 4.44444444,5.61167228 L4.05555556,5.61167228 L4.44444444,5.61167228 L4.44444444,11.7227834 L2.22222222,11.7227834 L2.22222222,5.61167228 Z" id="Combined-Shape" stroke="#5E95FF" fill="#FFFFFF"></path>
                <g id="Rectangle-4">
                    <use fill="#FFFFFF" fill-rule="evenodd" xlink:href="#path-1"></use>
                    <path stroke="#5E95FF" stroke-width="1" d="M2,8.3338945 C1.17157288,8.3338945 0.5,9.00546738 0.5,9.8338945 L0.5,17.5005612 C0.5,18.3289883 1.17157288,19.0005612 2,19.0005612 L13,19.0005612 C13.8284271,19.0005612 14.5,18.3289883 14.5,17.5005612 L14.5,9.8338945 C14.5,9.00546738 13.8284271,8.3338945 13,8.3338945 L2,8.3338945 Z"></path>
                </g>
                <path d="M6.88511908,14.6196263 C6.42123739,14.3519107 6.10807292,13.8435088 6.10807292,13.2603816 C6.10807292,12.3987926 6.79174227,11.7003367 7.63509115,11.7003367 C8.47844003,11.7003367 9.16210937,12.3987926 9.16210937,13.2603816 C9.16210937,13.8435088 8.8489449,14.3519107 8.38506321,14.6196263 C8.39394931,14.6662238 8.39860026,14.7143233 8.39860026,14.7635091 L8.39860026,15.6169623 C8.39860026,16.0386367 8.05676559,16.3804714 7.63509115,16.3804714 L7.63509115,16.3804714 C7.21341671,16.3804714 6.87158203,16.0386367 6.87158203,15.6169623 L6.87158203,14.7635091 L6.87158203,14.7635091 C6.87158203,14.7143233 6.87623298,14.6662238 6.88511908,14.6196263 Z" id="Combined-Shape" fill="#5E95FF" opacity="0.5"></path>
            </g>
        </g>
    </g>
</svg>